<?xml version="1.0" encoding="UTF-8"?>
<!DOCTYPE svg PUBLIC "-//W3C//DTD SVG 1.1//EN" "http://www.w3.org/Graphics/SVG/1.1/DTD/svg11.dtd">
<svg xmlns="http://www.w3.org/2000/svg" version="1.1" width="512px" height="487px" style="shape-rendering:geometricPrecision; text-rendering:geometricPrecision; image-rendering:optimizeQuality; fill-rule:evenodd; clip-rule:evenodd" xmlns:xlink="http://www.w3.org/1999/xlink">
<g><path style="opacity:1" fill="#ccb670" d="M 275.5,35.5 C 270.203,36.6923 266.203,35.0256 263.5,30.5C 260.704,29.4014 257.871,28.4014 255,27.5C 254.055,27.9054 253.388,28.572 253,29.5C 252.196,28.1955 251.029,27.5288 249.5,27.5C 247.394,28.4295 245.394,29.5962 243.5,31C 242.207,31.49 240.873,31.6567 239.5,31.5C 243.945,28.2431 248.778,25.5764 254,23.5C 261.258,27.3385 268.424,31.3385 275.5,35.5 Z"/></g>
<g><path style="opacity:1" fill="#ceb05b" d="M 275.5,35.5 C 275.833,35.5 276.167,35.5 276.5,35.5C 276.5,36.5 276.5,37.5 276.5,38.5C 280.018,40.0856 283.685,41.4189 287.5,42.5C 289.859,46.017 293.192,48.017 297.5,48.5C 298.117,50.2292 299.117,51.7292 300.5,53C 304.826,54.7476 309.159,56.2476 313.5,57.5C 315.966,58.2977 317.966,59.631 319.5,61.5C 319.5,62.5 319.5,63.5 319.5,64.5C 324.041,64.3309 324.374,64.9975 320.5,66.5C 322.833,67.1667 325.167,67.8333 327.5,68.5C 325.579,69.3239 324.246,70.6572 323.5,72.5C 322.817,74.1765 321.483,74.8432 319.5,74.5C 314.012,76.3394 309.346,79.3394 305.5,83.5C 302.68,83.087 300.68,84.087 299.5,86.5C 293.723,87.1447 288.723,89.478 284.5,93.5C 283.873,94.4168 283.539,95.4168 283.5,96.5C 281.143,96.3367 278.81,96.5034 276.5,97C 276.833,97.3333 277.167,97.6667 277.5,98C 274.283,100.078 271.283,102.245 268.5,104.5C 268.5,105.167 268.167,105.5 267.5,105.5C 264.513,105.998 261.513,106.498 258.5,107C 259.711,107.893 259.711,108.726 258.5,109.5C 257.061,110.063 255.561,110.397 254,110.5C 250.404,109.606 246.904,108.606 243.5,107.5C 243.5,106.833 243.167,106.5 242.5,106.5C 241.656,104.241 239.989,103.241 237.5,103.5C 235.847,103.34 234.514,102.674 233.5,101.5C 233.027,100.094 232.027,99.427 230.5,99.5C 229.222,98.2505 228.222,96.7505 227.5,95C 223.204,93.4867 219.204,91.4867 215.5,89C 214.207,88.51 212.873,88.3433 211.5,88.5C 211.33,87.1779 211.663,86.0113 212.5,85C 212,84.5 211.5,84 211,83.5C 207.543,85.2323 204.709,84.5657 202.5,81.5C 200.929,80.6906 199.262,80.3573 197.5,80.5C 194.08,75.7914 189.414,73.1247 183.5,72.5C 181.919,70.8583 181.253,68.8583 181.5,66.5C 182.978,66.762 184.311,66.4287 185.5,65.5C 187.883,64.1149 189.55,62.1149 190.5,59.5C 193.713,56.7256 197.38,54.7256 201.5,53.5C 207.891,53.7613 212.558,51.0947 215.5,45.5C 217.027,45.573 218.027,44.9063 218.5,43.5C 218.833,43.5 219.167,43.5 219.5,43.5C 224.496,42.8295 228.496,40.4962 231.5,36.5C 231.5,35.8333 231.833,35.5 232.5,35.5C 235.857,35.7841 238.191,34.4507 239.5,31.5C 240.873,31.6567 242.207,31.49 243.5,31C 245.394,29.5962 247.394,28.4295 249.5,27.5C 251.029,27.5288 252.196,28.1955 253,29.5C 253.388,28.572 254.055,27.9054 255,27.5C 257.871,28.4014 260.704,29.4014 263.5,30.5C 266.203,35.0256 270.203,36.6923 275.5,35.5 Z"/></g>
<g><path style="opacity:1" fill="#cbbb83" d="M 239.5,31.5 C 238.191,34.4507 235.857,35.7841 232.5,35.5C 234.535,33.8053 236.868,32.472 239.5,31.5 Z"/></g>
<g><path style="opacity:0.988" fill="#d3c087" d="M 276.5,35.5 C 280.183,37.8585 283.85,40.1919 287.5,42.5C 283.685,41.4189 280.018,40.0856 276.5,38.5C 276.5,37.5 276.5,36.5 276.5,35.5 Z"/></g>
<g><path style="opacity:1" fill="#cdb97b" d="M 231.5,36.5 C 228.496,40.4962 224.496,42.8295 219.5,43.5C 222.868,40.1472 226.868,37.8139 231.5,36.5 Z"/></g>
<g><path style="opacity:0.333" fill="#e2cca8" d="M 218.5,43.5 C 218.027,44.9063 217.027,45.573 215.5,45.5C 215.973,44.0937 216.973,43.427 218.5,43.5 Z"/></g>
<g><path style="opacity:0.937" fill="#cfb87f" d="M 287.5,42.5 C 291.168,43.9983 294.502,45.9983 297.5,48.5C 293.192,48.017 289.859,46.017 287.5,42.5 Z"/></g>
<g><path style="opacity:1" fill="#cdb579" d="M 215.5,45.5 C 212.558,51.0947 207.891,53.7613 201.5,53.5C 205.904,50.4415 210.571,47.7748 215.5,45.5 Z"/></g>
<g><path style="opacity:1" fill="#cfba7e" d="M 297.5,48.5 C 303.35,50.7072 308.684,53.7072 313.5,57.5C 309.159,56.2476 304.826,54.7476 300.5,53C 299.117,51.7292 298.117,50.2292 297.5,48.5 Z"/></g>
<g><path style="opacity:0.999" fill="#ccb678" d="M 190.5,59.5 C 189.55,62.1149 187.883,64.1149 185.5,65.5C 184.311,66.4287 182.978,66.762 181.5,66.5C 181.253,68.8583 181.919,70.8583 183.5,72.5C 179.906,71.9776 178.406,69.9776 179,66.5C 182.742,63.9051 186.576,61.5718 190.5,59.5 Z"/></g>
<g><path style="opacity:1" fill="#cdb672" d="M 319.5,61.5 C 322.555,62.5236 325.555,63.8569 328.5,65.5C 329.95,66.8498 330.617,68.5165 330.5,70.5C 328.167,71.1667 325.833,71.8333 323.5,72.5C 324.246,70.6572 325.579,69.3239 327.5,68.5C 325.167,67.8333 322.833,67.1667 320.5,66.5C 324.374,64.9975 324.041,64.3309 319.5,64.5C 319.5,63.5 319.5,62.5 319.5,61.5 Z"/></g>
<g><path style="opacity:0.976" fill="#d1c18b" d="M 183.5,72.5 C 189.414,73.1247 194.08,75.7914 197.5,80.5C 192.49,78.39 187.823,75.7234 183.5,72.5 Z"/></g>
<g><path style="opacity:0.98" fill="#d4c38b" d="M 319.5,74.5 C 319.063,76.0744 318.063,77.2411 316.5,78C 313.063,80.3112 309.396,82.1445 305.5,83.5C 309.346,79.3394 314.012,76.3394 319.5,74.5 Z"/></g>
<g><path style="opacity:0.945" fill="#d3bf8d" d="M 305.5,83.5 C 303.967,85.2451 301.967,86.2451 299.5,86.5C 300.68,84.087 302.68,83.087 305.5,83.5 Z"/></g>
<g><path style="opacity:1" fill="#ceb976" d="M 197.5,80.5 C 199.262,80.3573 200.929,80.6906 202.5,81.5C 204.709,84.5657 207.543,85.2323 211,83.5C 211.5,84 212,84.5 212.5,85C 211.663,86.0113 211.33,87.1779 211.5,88.5C 206.206,86.8552 201.539,84.1886 197.5,80.5 Z"/></g>
<g><path style="opacity:1" fill="#d3bf7f" d="M 299.5,86.5 C 294.85,90.7407 289.517,94.074 283.5,96.5C 283.539,95.4168 283.873,94.4168 284.5,93.5C 288.723,89.478 293.723,87.1447 299.5,86.5 Z"/></g>
<g><path style="opacity:1" fill="#d1bf7e" d="M 211.5,88.5 C 212.873,88.3433 214.207,88.51 215.5,89C 219.204,91.4867 223.204,93.4867 227.5,95C 228.222,96.7505 229.222,98.2505 230.5,99.5C 223.693,96.5983 217.36,92.9317 211.5,88.5 Z"/></g>
<g><path style="opacity:1" fill="#ceb05b" d="M 173.5,90.5 C 178.054,93.6813 182.721,96.8479 187.5,100C 188.816,100.528 189.483,100.028 189.5,98.5C 190.167,98.5 190.5,98.8333 190.5,99.5C 192.472,103.497 195.806,105.497 200.5,105.5C 200.833,105.5 201.167,105.5 201.5,105.5C 201.539,106.583 201.873,107.583 202.5,108.5C 205.527,109.361 208.194,110.861 210.5,113C 211.793,113.49 213.127,113.657 214.5,113.5C 214.833,113.5 215.167,113.5 215.5,113.5C 216.874,117.187 219.541,118.853 223.5,118.5C 225.374,120.115 226.708,122.115 227.5,124.5C 229.199,124.34 230.866,124.506 232.5,125C 235.477,127.513 238.643,129.68 242,131.5C 242.5,159.831 242.667,188.165 242.5,216.5C 239.564,215.594 236.564,214.928 233.5,214.5C 230.952,212.588 228.618,210.421 226.5,208C 222.807,207.07 219.641,205.237 217,202.5C 215.234,201.767 213.401,201.433 211.5,201.5C 209.555,198.23 206.555,196.563 202.5,196.5C 199.9,195.532 197.566,194.199 195.5,192.5C 195.179,190.952 194.179,190.285 192.5,190.5C 192.67,189.178 192.337,188.011 191.5,187C 188.054,186.339 184.721,185.505 181.5,184.5C 179.222,181.528 176.222,179.861 172.5,179.5C 171.891,177.057 170.391,175.39 168,174.5C 167.167,146.161 167.333,117.827 168.5,89.5C 170.071,90.3094 171.738,90.6427 173.5,90.5 Z"/></g>
<g><path style="opacity:0.918" fill="#c4af68" d="M 173.5,89.5 C 173.5,89.8333 173.5,90.1667 173.5,90.5C 171.738,90.6427 170.071,90.3094 168.5,89.5C 167.333,117.827 167.167,146.161 168,174.5C 170.391,175.39 171.891,177.057 172.5,179.5C 169.638,178.753 167.638,177.086 166.5,174.5C 166.5,145.833 166.5,117.167 166.5,88.5C 168.861,88.6741 171.194,89.0074 173.5,89.5 Z"/></g>
<g><path style="opacity:0.988" fill="#cfbc83" d="M 173.5,89.5 C 179.197,92.011 184.53,95.011 189.5,98.5C 189.483,100.028 188.816,100.528 187.5,100C 182.721,96.8479 178.054,93.6813 173.5,90.5C 173.5,90.1667 173.5,89.8333 173.5,89.5 Z"/></g>
<g><path style="opacity:1" fill="#ceb05b" d="M 333.5,90.5 C 335.833,90.5 338.167,90.5 340.5,90.5C 340.5,117.5 340.5,144.5 340.5,171.5C 340.5,172.833 340.5,174.167 340.5,175.5C 337.837,177.323 334.837,178.323 331.5,178.5C 331.473,180.199 330.806,181.533 329.5,182.5C 327.847,182.66 326.514,183.326 325.5,184.5C 322.484,185.562 319.484,186.729 316.5,188C 315.748,188.671 315.414,189.504 315.5,190.5C 313.973,190.427 312.973,191.094 312.5,192.5C 309.873,193.092 307.206,193.425 304.5,193.5C 304.5,194.5 304.5,195.5 304.5,196.5C 302.856,196.714 301.356,196.38 300,195.5C 299.508,196.549 299.674,197.549 300.5,198.5C 299.757,199.182 299.091,199.849 298.5,200.5C 293.148,199.672 289.481,201.672 287.5,206.5C 287.179,208.048 286.179,208.715 284.5,208.5C 281.669,209.079 279.336,210.412 277.5,212.5C 273.562,214.035 269.562,215.368 265.5,216.5C 265.167,188.159 265.5,159.825 266.5,131.5C 268.619,129.6 270.953,127.934 273.5,126.5C 275.017,127.911 276.351,127.744 277.5,126C 277.167,125.667 276.833,125.333 276.5,125C 277.448,124.517 278.448,124.351 279.5,124.5C 279.5,123.5 279.5,122.5 279.5,121.5C 281.891,119.638 284.558,118.304 287.5,117.5C 291.573,117.092 294.573,115.092 296.5,111.5C 297.167,111.5 297.5,111.167 297.5,110.5C 300.313,110.975 302.313,109.975 303.5,107.5C 305.967,107.245 307.967,106.245 309.5,104.5C 310.923,102.455 312.923,101.455 315.5,101.5C 322.571,99.3973 328.571,95.7306 333.5,90.5 Z"/></g>
<g><path style="opacity:1" fill="#d5c38b" d="M 283.5,96.5 C 280.061,98.3936 276.728,100.56 273.5,103C 271.975,104.009 270.308,104.509 268.5,104.5C 271.283,102.245 274.283,100.078 277.5,98C 277.167,97.6667 276.833,97.3333 276.5,97C 278.81,96.5034 281.143,96.3367 283.5,96.5 Z"/></g>
<g><path style="opacity:0.984" fill="#ccb97c" d="M 333.5,90.5 C 328.571,95.7306 322.571,99.3973 315.5,101.5C 315.937,99.9256 316.937,98.7589 318.5,98C 323.386,95.2832 328.386,92.7832 333.5,90.5 Z"/></g>
<g><path style="opacity:0.325" fill="#e8d4ad" d="M 230.5,99.5 C 232.027,99.427 233.027,100.094 233.5,101.5C 231.973,101.573 230.973,100.906 230.5,99.5 Z"/></g>
<g><path style="opacity:0.894" fill="#cebb7c" d="M 190.5,99.5 C 194.201,101.012 197.534,103.012 200.5,105.5C 195.806,105.497 192.472,103.497 190.5,99.5 Z"/></g>
<g><path style="opacity:0.608" fill="#d6c292" d="M 237.5,103.5 C 239.989,103.241 241.656,104.241 242.5,106.5C 240.566,105.89 238.899,104.89 237.5,103.5 Z"/></g>
<g><path style="opacity:0.549" fill="#d8c996" d="M 309.5,104.5 C 307.967,106.245 305.967,107.245 303.5,107.5C 305.033,105.755 307.033,104.755 309.5,104.5 Z"/></g>
<g><path style="opacity:0.69" fill="#decfa2" d="M 303.5,107.5 C 302.313,109.975 300.313,110.975 297.5,110.5C 299.456,109.508 301.456,108.508 303.5,107.5 Z"/></g>
<g><path style="opacity:0.776" fill="#d3bf88" d="M 267.5,105.5 C 262.738,110.141 257.072,112.308 250.5,112C 248.062,110.54 245.729,109.04 243.5,107.5C 246.904,108.606 250.404,109.606 254,110.5C 255.561,110.397 257.061,110.063 258.5,109.5C 259.711,108.726 259.711,107.893 258.5,107C 261.513,106.498 264.513,105.998 267.5,105.5 Z"/></g>
<g><path style="opacity:0.957" fill="#cfbc83" d="M 201.5,105.5 C 206.004,107.917 210.337,110.584 214.5,113.5C 213.127,113.657 211.793,113.49 210.5,113C 208.194,110.861 205.527,109.361 202.5,108.5C 201.873,107.583 201.539,106.583 201.5,105.5 Z"/></g>
<g><path style="opacity:0.973" fill="#d2be88" d="M 296.5,111.5 C 294.573,115.092 291.573,117.092 287.5,117.5C 289.674,114.419 292.674,112.419 296.5,111.5 Z"/></g>
<g><path style="opacity:0.98" fill="#d1bc81" d="M 215.5,113.5 C 218.431,114.803 221.098,116.469 223.5,118.5C 219.541,118.853 216.874,117.187 215.5,113.5 Z"/></g>
<g><path style="opacity:0.396" fill="#c4ac6d" d="M 341.5,171.5 C 341.167,171.5 340.833,171.5 340.5,171.5C 340.5,144.5 340.5,117.5 340.5,90.5C 338.167,90.5 335.833,90.5 333.5,90.5C 335.579,88.127 338.246,86.7936 341.5,86.5C 341.5,114.833 341.5,143.167 341.5,171.5 Z"/></g>
<g><path style="opacity:1" fill="#cdbb7f" d="M 400.5,147.5 C 399.127,147.657 397.793,147.49 396.5,147C 387.825,141.838 379.158,137.004 370.5,132.5C 370.333,143.505 370.5,154.505 371,165.5C 373.118,166.283 374.618,167.616 375.5,169.5C 370.82,168.65 368.487,165.817 368.5,161C 369.813,153.498 369.813,145.998 368.5,138.5C 368.786,135.733 369.453,133.066 370.5,130.5C 380.814,135.714 390.814,141.38 400.5,147.5 Z"/></g>
<g><path style="opacity:1" fill="#ceb15b" d="M 133.5,168.5 C 132.789,170.201 131.455,171.201 129.5,171.5C 124.511,173.903 119.177,175.736 113.5,177C 111.349,178.57 109.182,180.07 107,181.5C 106.5,193.829 106.333,206.162 106.5,218.5C 104.896,219.287 104.229,220.62 104.5,222.5C 103.022,222.238 101.689,222.571 100.5,223.5C 98.6253,224.409 97.292,225.743 96.5,227.5C 93.11,227.115 90.7767,228.448 89.5,231.5C 87.1727,231.753 85.1727,231.086 83.5,229.5C 83.1667,230.833 82.8333,232.167 82.5,233.5C 81.3112,234.429 79.9778,234.762 78.5,234.5C 78.2088,211.807 78.5421,189.14 79.5,166.5C 79.5,166.167 79.5,165.833 79.5,165.5C 83.0146,164.655 85.6813,162.655 87.5,159.5C 92.8605,158.467 97.1938,155.801 100.5,151.5C 101.514,150.326 102.847,149.66 104.5,149.5C 110.601,149.164 115.268,146.497 118.5,141.5C 122.11,139.019 125.777,136.519 129.5,134C 130.448,133.517 131.448,133.351 132.5,133.5C 134.117,132.962 135.784,132.629 137.5,132.5C 137.5,143.167 137.5,153.833 137.5,164.5C 136.5,164.5 135.5,164.5 134.5,164.5C 134.567,165.959 134.234,167.292 133.5,168.5 Z"/></g>
<g><path style="opacity:1" fill="#ceb05b" d="M 400.5,147.5 C 401.918,151.694 404.918,153.361 409.5,152.5C 410.413,154.086 410.413,155.586 409.5,157C 413.79,156.436 415.957,158.269 416,162.5C 416.674,161.422 417.674,160.755 419,160.5C 420.533,160.773 422.033,161.106 423.5,161.5C 424.793,163.296 426.293,164.963 428,166.5C 428.202,168.256 428.702,169.922 429.5,171.5C 429.833,182.167 430.167,192.833 430.5,203.5C 430.499,214.522 429.832,225.188 428.5,235.5C 424.798,234.871 421.798,233.037 419.5,230C 416.588,229.725 413.921,228.891 411.5,227.5C 409.847,227.34 408.514,226.674 407.5,225.5C 406.676,222.202 404.676,219.869 401.5,218.5C 400.667,206.18 400.167,193.847 400,181.5C 397.42,179.747 394.587,178.747 391.5,178.5C 389.17,176.416 388.003,173.749 388,170.5C 387.667,170.833 387.333,171.167 387,171.5C 383.255,170.512 379.422,169.845 375.5,169.5C 374.618,167.616 373.118,166.283 371,165.5C 370.5,154.505 370.333,143.505 370.5,132.5C 379.158,137.004 387.825,141.838 396.5,147C 397.793,147.49 399.127,147.657 400.5,147.5 Z"/></g>
<g><path style="opacity:0.244" fill="#eee1ae" d="M 173.5,89.5 C 171.194,89.0074 168.861,88.6741 166.5,88.5C 166.5,117.167 166.5,145.833 166.5,174.5C 165.17,145.664 165.17,116.664 166.5,87.5C 169.188,86.6651 171.522,87.3318 173.5,89.5 Z"/></g>
<g><path style="opacity:0.836" fill="#c8b16f" d="M 223.5,118.5 C 230.022,122.014 236.522,125.681 243,129.5C 243.833,159.506 243.667,189.506 242.5,219.5C 239.226,218.203 236.226,216.536 233.5,214.5C 236.564,214.928 239.564,215.594 242.5,216.5C 242.667,188.165 242.5,159.831 242,131.5C 238.643,129.68 235.477,127.513 232.5,125C 230.866,124.506 229.199,124.34 227.5,124.5C 226.708,122.115 225.374,120.115 223.5,118.5 Z"/></g>
<g><path style="opacity:0.713" fill="#cab373" d="M 279.5,121.5 C 279.5,122.5 279.5,123.5 279.5,124.5C 278.448,124.351 277.448,124.517 276.5,125C 276.833,125.333 277.167,125.667 277.5,126C 276.351,127.744 275.017,127.911 273.5,126.5C 270.953,127.934 268.619,129.6 266.5,131.5C 265.5,159.825 265.167,188.159 265.5,216.5C 269.562,215.368 273.562,214.035 277.5,212.5C 275.368,214.955 272.701,216.621 269.5,217.5C 267.833,217.5 266.167,217.5 264.5,217.5C 264.5,188.5 264.5,159.5 264.5,130.5C 264.953,129.542 265.619,128.708 266.5,128C 270.545,125.311 274.879,123.144 279.5,121.5 Z"/></g>
<g><path style="opacity:0.968" fill="#d1bb79" d="M 118.5,141.5 C 115.268,146.497 110.601,149.164 104.5,149.5C 108.865,146.317 113.532,143.65 118.5,141.5 Z"/></g>
<g><path style="opacity:1" fill="#d2be7e" d="M 400.5,147.5 C 403.669,148.917 406.669,150.583 409.5,152.5C 404.918,153.361 401.918,151.694 400.5,147.5 Z"/></g>
<g><path style="opacity:0.953" fill="#cfbc82" d="M 133.5,168.5 C 134.234,167.292 134.567,165.959 134.5,164.5C 135.5,164.5 136.5,164.5 137.5,164.5C 137.5,153.833 137.5,143.167 137.5,132.5C 135.784,132.629 134.117,132.962 132.5,133.5C 134.037,130.933 136.204,130.266 139,131.5C 139.833,143.181 139.666,154.848 138.5,166.5C 137.15,167.95 135.484,168.617 133.5,168.5 Z"/></g>
<g><path style="opacity:0.922" fill="#cfbd82" d="M 100.5,151.5 C 97.1938,155.801 92.8605,158.467 87.5,159.5C 91.3233,156.084 95.6566,153.418 100.5,151.5 Z"/></g>
<g><path style="opacity:1" fill="#cdb975" d="M 409.5,152.5 C 414.533,155.011 419.2,158.011 423.5,161.5C 422.033,161.106 420.533,160.773 419,160.5C 417.674,160.755 416.674,161.422 416,162.5C 415.957,158.269 413.79,156.436 409.5,157C 410.413,155.586 410.413,154.086 409.5,152.5 Z"/></g>
<g><path style="opacity:1" fill="#ccbc7d" d="M 87.5,159.5 C 85.6813,162.655 83.0146,164.655 79.5,165.5C 81.0447,162.056 83.7114,160.056 87.5,159.5 Z"/></g>
<g><path style="opacity:1" fill="#ccb773" d="M 375.5,169.5 C 379.422,169.845 383.255,170.512 387,171.5C 387.333,171.167 387.667,170.833 388,170.5C 388.003,173.749 389.17,176.416 391.5,178.5C 386.154,175.494 380.82,172.494 375.5,169.5 Z"/></g>
<g><path style="opacity:1" fill="#cbb36d" d="M 79.5,166.5 C 78.5421,189.14 78.2088,211.807 78.5,234.5C 79.9778,234.762 81.3112,234.429 82.5,233.5C 82.8333,232.167 83.1667,230.833 83.5,229.5C 85.1727,231.086 87.1727,231.753 89.5,231.5C 89.6309,232.376 89.2975,233.043 88.5,233.5C 86.0037,234.251 83.6704,235.251 81.5,236.5C 80.1667,236.5 78.8333,236.5 77.5,236.5C 77.5,214.833 77.5,193.167 77.5,171.5C 77.0773,169.219 77.744,167.552 79.5,166.5 Z"/></g>
<g><path style="opacity:1" fill="#d1c187" d="M 340.5,171.5 C 340.833,171.5 341.167,171.5 341.5,171.5C 341.785,173.288 341.452,174.955 340.5,176.5C 337.209,179.258 333.543,181.258 329.5,182.5C 330.806,181.533 331.473,180.199 331.5,178.5C 334.837,178.323 337.837,177.323 340.5,175.5C 340.5,174.167 340.5,172.833 340.5,171.5 Z"/></g>
<g><path style="opacity:0.945" fill="#d8c692" d="M 172.5,179.5 C 176.222,179.861 179.222,181.528 181.5,184.5C 178.207,183.302 175.207,181.635 172.5,179.5 Z"/></g>
<g><path style="opacity:1" fill="#c9b571" d="M 129.5,171.5 C 122.76,175.043 116.094,178.876 109.5,183C 108.756,184.815 108.089,186.648 107.5,188.5C 107.827,198.681 107.494,208.681 106.5,218.5C 106.333,206.162 106.5,193.829 107,181.5C 109.182,180.07 111.349,178.57 113.5,177C 119.177,175.736 124.511,173.903 129.5,171.5 Z"/></g>
<g><path style="opacity:0.11" fill="#e2cfac" d="M 329.5,182.5 C 328.713,184.104 327.38,184.771 325.5,184.5C 326.514,183.326 327.847,182.66 329.5,182.5 Z"/></g>
<g><path style="opacity:1" fill="#d3ba7c" d="M 181.5,184.5 C 184.721,185.505 188.054,186.339 191.5,187C 192.337,188.011 192.67,189.178 192.5,190.5C 194.179,190.285 195.179,190.952 195.5,192.5C 190.468,190.322 185.801,187.655 181.5,184.5 Z"/></g>
<g><path style="opacity:0.835" fill="#d5c28c" d="M 325.5,184.5 C 322.868,187.49 319.535,189.49 315.5,190.5C 315.414,189.504 315.748,188.671 316.5,188C 319.484,186.729 322.484,185.562 325.5,184.5 Z"/></g>
<g><path style="opacity:0.595" fill="#cfc296" d="M 77.5,171.5 C 77.5,193.167 77.5,214.833 77.5,236.5C 78.8333,236.5 80.1667,236.5 81.5,236.5C 80.4151,238.582 78.9151,238.916 77,237.5C 76.1705,215.329 76.3371,193.329 77.5,171.5 Z"/></g>
<g><path style="opacity:0.035" fill="#dbd2a8" d="M 315.5,190.5 C 315.027,191.906 314.027,192.573 312.5,192.5C 312.973,191.094 313.973,190.427 315.5,190.5 Z"/></g>
<g><path style="opacity:1" fill="#d5c084" d="M 312.5,192.5 C 308.179,195.664 303.512,198.331 298.5,200.5C 299.091,199.849 299.757,199.182 300.5,198.5C 299.674,197.549 299.508,196.549 300,195.5C 301.356,196.38 302.856,196.714 304.5,196.5C 304.5,195.5 304.5,194.5 304.5,193.5C 307.206,193.425 309.873,193.092 312.5,192.5 Z"/></g>
<g><path style="opacity:0.914" fill="#d4c188" d="M 202.5,196.5 C 206.555,196.563 209.555,198.23 211.5,201.5C 208.294,200.067 205.294,198.4 202.5,196.5 Z"/></g>
<g><path style="opacity:0.043" fill="#f9e5b8" d="M 264.5,130.5 C 264.5,159.5 264.5,188.5 264.5,217.5C 266.167,217.5 267.833,217.5 269.5,217.5C 267.735,218.461 265.735,218.795 263.5,218.5C 263.169,188.995 263.502,159.662 264.5,130.5 Z"/></g>
<g><path style="opacity:1" fill="#d0bd79" d="M 298.5,200.5 C 295.311,203.263 291.644,205.263 287.5,206.5C 289.481,201.672 293.148,199.672 298.5,200.5 Z"/></g>
<g><path style="opacity:0.546" fill="#ccb675" d="M 391.5,178.5 C 394.587,178.747 397.42,179.747 400,181.5C 400.167,193.847 400.667,206.18 401.5,218.5C 404.676,219.869 406.676,222.202 407.5,225.5C 405.072,224.788 402.739,223.788 400.5,222.5C 399.667,209.513 399.167,196.513 399,183.5C 396.456,181.733 393.956,180.066 391.5,178.5 Z"/></g>
<g><path style="opacity:0.871" fill="#d3bf84" d="M 211.5,201.5 C 213.401,201.433 215.234,201.767 217,202.5C 219.641,205.237 222.807,207.07 226.5,208C 228.618,210.421 230.952,212.588 233.5,214.5C 225.852,210.677 218.519,206.344 211.5,201.5 Z"/></g>
<g><path style="opacity:0.919" fill="#c5af6e" d="M 423.5,161.5 C 427.584,163.092 430.084,166.092 431,170.5C 431.5,192.497 431.667,214.497 431.5,236.5C 430.209,236.737 429.209,236.404 428.5,235.5C 429.832,225.188 430.499,214.522 430.5,203.5C 430.167,192.833 429.833,182.167 429.5,171.5C 428.702,169.922 428.202,168.256 428,166.5C 426.293,164.963 424.793,163.296 423.5,161.5 Z"/></g>
<g><path style="opacity:0.275" fill="#ddcca2" d="M 284.5,208.5 C 282.66,210.669 280.326,212.002 277.5,212.5C 279.336,210.412 281.669,209.079 284.5,208.5 Z"/></g>
<g><path style="opacity:0.491" fill="#d1c195" d="M 107.5,188.5 C 108.659,198.658 108.825,208.992 108,219.5C 107.768,220.737 107.268,221.737 106.5,222.5C 106.5,221.167 106.5,219.833 106.5,218.5C 107.494,208.681 107.827,198.681 107.5,188.5 Z"/></g>
<g><path style="opacity:1" fill="#cfbc7b" d="M 106.5,218.5 C 106.5,219.833 106.5,221.167 106.5,222.5C 103.62,225.039 100.287,226.706 96.5,227.5C 97.292,225.743 98.6253,224.409 100.5,223.5C 101.689,222.571 103.022,222.238 104.5,222.5C 104.229,220.62 104.896,219.287 106.5,218.5 Z"/></g>
<g><path style="opacity:1" fill="#d3bf87" d="M 96.5,227.5 C 94.6644,229.588 92.3311,230.921 89.5,231.5C 90.7767,228.448 93.11,227.115 96.5,227.5 Z"/></g>
<g><path style="opacity:0.816" fill="#cec08a" d="M 411.5,227.5 C 413.921,228.891 416.588,229.725 419.5,230C 421.798,233.037 424.798,234.871 428.5,235.5C 429.209,236.404 430.209,236.737 431.5,236.5C 430.054,237.613 428.387,237.78 426.5,237C 421.097,234.308 416.097,231.142 411.5,227.5 Z"/></g>
<g><path style="opacity:0.922" fill="#d2c18d" d="M 138.5,244.5 C 135.72,243.771 132.887,243.104 130,242.5C 127.152,242.798 124.319,243.131 121.5,243.5C 123.607,241.348 126.274,240.348 129.5,240.5C 133.167,240.539 136.167,241.872 138.5,244.5 Z"/></g>
<g><path style="opacity:0.643" fill="#dbca9e" d="M 121.5,243.5 C 120.198,245.822 118.198,247.155 115.5,247.5C 117.147,245.674 119.147,244.34 121.5,243.5 Z"/></g>
<g><path style="opacity:1" fill="#d1bc82" d="M 138.5,244.5 C 142.391,246.117 145.724,248.45 148.5,251.5C 145.147,250.939 142.147,249.605 139.5,247.5C 138.873,246.583 138.539,245.583 138.5,244.5 Z"/></g>
<g><path style="opacity:1" fill="#cdba77" d="M 392.5,247.5 C 387.866,245.621 383.199,243.954 378.5,242.5C 377.167,242.833 375.833,243.167 374.5,243.5C 371.826,245.577 369.159,247.744 366.5,250C 362.029,250.537 358.362,252.537 355.5,256C 352.014,257.624 348.347,258.79 344.5,259.5C 354.425,252.862 364.759,246.695 375.5,241C 382.307,240.267 387.973,242.434 392.5,247.5 Z"/></g>
<g><path style="opacity:0.965" fill="#d7c492" d="M 392.5,247.5 C 395.237,248.217 397.57,249.55 399.5,251.5C 396.576,251.102 394.242,249.769 392.5,247.5 Z"/></g>
<g><path style="opacity:1" fill="#ceb05b" d="M 138.5,244.5 C 138.539,245.583 138.873,246.583 139.5,247.5C 142.147,249.605 145.147,250.939 148.5,251.5C 150.906,254.881 154.239,256.547 158.5,256.5C 158.33,257.822 158.663,258.989 159.5,260C 163.609,262.203 167.942,263.703 172.5,264.5C 172.5,265.5 172.5,266.5 172.5,267.5C 174.167,267.5 175.833,267.5 177.5,267.5C 177.833,267.5 178.167,267.5 178.5,267.5C 178.5,268.5 178.5,269.5 178.5,270.5C 181.554,271.196 184.22,272.696 186.5,275C 188.134,275.494 189.801,275.66 191.5,275.5C 194.132,278.49 197.465,280.49 201.5,281.5C 201.833,281.5 202.167,281.5 202.5,281.5C 202.85,284.453 201.85,286.787 199.5,288.5C 197.518,291.137 194.852,292.47 191.5,292.5C 190.127,292.343 188.793,292.51 187.5,293C 188.888,293.889 188.722,294.389 187,294.5C 184.276,293.162 183.109,294.162 183.5,297.5C 181.833,297.5 180.167,297.5 178.5,297.5C 178.5,298.5 178.5,299.5 178.5,300.5C 175.806,301.737 172.473,302.404 168.5,302.5C 168.5,303.833 168.5,305.167 168.5,306.5C 166.396,306.201 164.396,306.534 162.5,307.5C 161.399,309.102 159.899,310.102 158,310.5C 153.353,308.65 151.853,309.984 153.5,314.5C 151.071,314.884 148.737,315.551 146.5,316.5C 146.5,317.5 146.5,318.5 146.5,319.5C 143.746,319.784 141.08,320.451 138.5,321.5C 136.657,323.605 134.324,324.772 131.5,325C 131.833,325.333 132.167,325.667 132.5,326C 129.518,326.498 126.518,326.665 123.5,326.5C 121.938,326.267 120.605,325.6 119.5,324.5C 117.54,321.614 114.873,319.614 111.5,318.5C 110.893,318.624 110.56,318.957 110.5,319.5C 109.833,319.5 109.5,319.167 109.5,318.5C 106.939,315.283 103.605,313.283 99.5,312.5C 96.391,309.812 93.0576,307.312 89.5,305C 88.2068,304.51 86.8734,304.343 85.5,304.5C 84.3747,302.871 83.0414,301.371 81.5,300C 78.267,298.614 74.9336,297.447 71.5,296.5C 69.0095,291.693 65.0095,289.36 59.5,289.5C 58.4887,287.801 57.1554,286.301 55.5,285C 58.2548,282.98 60.5881,280.48 62.5,277.5C 63.8734,277.657 65.2068,277.49 66.5,277C 70.3087,275.01 73.642,272.51 76.5,269.5C 76.8333,269.5 77.1667,269.5 77.5,269.5C 82.0202,269.341 85.3535,267.341 87.5,263.5C 91.2119,261.679 95.2119,260.179 99.5,259C 102.71,256.613 105.71,254.113 108.5,251.5C 110.34,249.331 112.674,247.998 115.5,247.5C 118.198,247.155 120.198,245.822 121.5,243.5C 124.319,243.131 127.152,242.798 130,242.5C 132.887,243.104 135.72,243.771 138.5,244.5 Z"/></g>
<g><path style="opacity:1" fill="#ceb05b" d="M 392.5,247.5 C 394.242,249.769 396.576,251.102 399.5,251.5C 402.76,252.774 405.76,254.44 408.5,256.5C 408.937,258.074 409.937,259.241 411.5,260C 415.541,262.351 419.541,264.684 423.5,267C 422.692,267.308 422.025,267.808 421.5,268.5C 423.93,271.13 426.763,271.797 430,270.5C 432.22,272.193 434.72,273.193 437.5,273.5C 438.29,274.794 439.29,275.961 440.5,277C 443.071,277.901 445.404,279.234 447.5,281C 448.793,281.49 450.127,281.657 451.5,281.5C 452.278,282.156 452.944,282.989 453.5,284C 448.64,288.51 442.973,291.51 436.5,293C 437.684,294.145 437.684,295.312 436.5,296.5C 435.833,296.5 435.5,296.833 435.5,297.5C 434.167,297.5 432.833,297.5 431.5,297.5C 431.5,296.167 431.5,294.833 431.5,293.5C 426.643,293.349 425.643,295.016 428.5,298.5C 428.291,299.086 427.957,299.586 427.5,300C 424.475,301.434 421.475,301.934 418.5,301.5C 419.167,302.5 419.833,303.5 420.5,304.5C 419.388,305.265 418.721,306.265 418.5,307.5C 414.245,310.004 409.912,312.338 405.5,314.5C 401.78,314.564 398.114,315.064 394.5,316C 392.771,317.789 392.104,319.956 392.5,322.5C 391.609,323.11 390.609,323.443 389.5,323.5C 385.617,324.515 381.783,325.848 378,327.5C 375.709,326.013 373.209,325.013 370.5,324.5C 370.047,323.542 369.381,322.708 368.5,322C 364.93,320.201 361.264,318.701 357.5,317.5C 354.984,314.209 351.651,312.209 347.5,311.5C 347.158,310.662 346.492,310.328 345.5,310.5C 344.659,308.488 343.159,307.155 341,306.5C 340.383,305.551 340.549,304.718 341.5,304C 339.527,303.505 337.527,303.338 335.5,303.5C 335.5,302.5 335.5,301.5 335.5,300.5C 334.167,300.5 332.833,300.5 331.5,300.5C 329.958,299.699 328.292,299.366 326.5,299.5C 325.833,299.5 325.5,299.167 325.5,298.5C 323.751,296.484 321.751,294.818 319.5,293.5C 315.68,291.331 311.846,288.998 308,286.5C 307.167,283.829 307.667,281.496 309.5,279.5C 314.512,278.827 319.178,277.161 323.5,274.5C 324.953,272.815 326.286,271.149 327.5,269.5C 331.155,267.549 335.155,266.216 339.5,265.5C 340.292,263.115 341.626,261.115 343.5,259.5C 343.833,259.5 344.167,259.5 344.5,259.5C 348.347,258.79 352.014,257.624 355.5,256C 358.362,252.537 362.029,250.537 366.5,250C 369.159,247.744 371.826,245.577 374.5,243.5C 375.833,243.167 377.167,242.833 378.5,242.5C 383.199,243.954 387.866,245.621 392.5,247.5 Z"/></g>
<g><path style="opacity:1" fill="#d2bc7f" d="M 148.5,251.5 C 152.392,252.446 156.059,253.946 159.5,256C 165.753,259.615 171.753,263.449 177.5,267.5C 175.833,267.5 174.167,267.5 172.5,267.5C 172.5,266.5 172.5,265.5 172.5,264.5C 167.942,263.703 163.609,262.203 159.5,260C 158.663,258.989 158.33,257.822 158.5,256.5C 154.239,256.547 150.906,254.881 148.5,251.5 Z"/></g>
<g><path style="opacity:0.98" fill="#d0be83" d="M 108.5,251.5 C 105.71,254.113 102.71,256.613 99.5,259C 95.2119,260.179 91.2119,261.679 87.5,263.5C 93.9943,258.749 100.994,254.749 108.5,251.5 Z"/></g>
<g><path style="opacity:1" fill="#cdb977" d="M 87.5,263.5 C 85.3535,267.341 82.0202,269.341 77.5,269.5C 80.1579,266.59 83.4913,264.59 87.5,263.5 Z"/></g>
<g><path style="opacity:1" fill="#cfbc7c" d="M 343.5,259.5 C 341.626,261.115 340.292,263.115 339.5,265.5C 335.155,266.216 331.155,267.549 327.5,269.5C 332.489,265.669 337.822,262.336 343.5,259.5 Z"/></g>
<g><path style="opacity:1" fill="#cfb673" d="M 408.5,256.5 C 418.704,261.42 428.371,267.087 437.5,273.5C 434.72,273.193 432.22,272.193 430,270.5C 426.763,271.797 423.93,271.13 421.5,268.5C 422.025,267.808 422.692,267.308 423.5,267C 419.541,264.684 415.541,262.351 411.5,260C 409.937,259.241 408.937,258.074 408.5,256.5 Z"/></g>
<g><path style="opacity:0.886" fill="#cebd86" d="M 178.5,267.5 C 183.339,269.416 187.672,272.082 191.5,275.5C 189.801,275.66 188.134,275.494 186.5,275C 184.22,272.696 181.554,271.196 178.5,270.5C 178.5,269.5 178.5,268.5 178.5,267.5 Z"/></g>
<g><path style="opacity:0.996" fill="#ccb677" d="M 327.5,269.5 C 326.286,271.149 324.953,272.815 323.5,274.5C 319.178,277.161 314.512,278.827 309.5,279.5C 315.147,275.673 321.147,272.34 327.5,269.5 Z"/></g>
<g><path style="opacity:0.922" fill="#d2c28d" d="M 76.5,269.5 C 73.642,272.51 70.3087,275.01 66.5,277C 65.2068,277.49 63.8734,277.657 62.5,277.5C 66.8009,274.345 71.4675,271.678 76.5,269.5 Z"/></g>
<g><path style="opacity:0.561" fill="#dacb99" d="M 191.5,275.5 C 195.501,276.496 198.834,278.496 201.5,281.5C 197.465,280.49 194.132,278.49 191.5,275.5 Z"/></g>
<g><path style="opacity:0.878" fill="#d5c28c" d="M 437.5,273.5 C 442.792,275.144 447.459,277.81 451.5,281.5C 450.127,281.657 448.793,281.49 447.5,281C 445.404,279.234 443.071,277.901 440.5,277C 439.29,275.961 438.29,274.794 437.5,273.5 Z"/></g>
<g><path style="opacity:1" fill="#cdb985" d="M 62.5,277.5 C 60.5881,280.48 58.2548,282.98 55.5,285C 57.1554,286.301 58.4887,287.801 59.5,289.5C 54.4503,288.806 52.7836,286.139 54.5,281.5C 57.2198,280.14 59.8864,278.807 62.5,277.5 Z"/></g>
<g><path style="opacity:0.318" fill="#dfd6af" d="M 305.5,281.5 C 305.077,282.265 304.743,283.098 304.5,284C 305.315,285.643 306.315,287.143 307.5,288.5C 304.95,288.116 303.617,286.616 303.5,284C 303.684,282.624 304.351,281.791 305.5,281.5 Z"/></g>
<g><path style="opacity:1" fill="#c9b671" d="M 309.5,279.5 C 307.667,281.496 307.167,283.829 308,286.5C 311.846,288.998 315.68,291.331 319.5,293.5C 318.167,293.5 316.833,293.5 315.5,293.5C 312.854,291.865 310.187,290.198 307.5,288.5C 306.315,287.143 305.315,285.643 304.5,284C 304.743,283.098 305.077,282.265 305.5,281.5C 306.605,280.4 307.938,279.733 309.5,279.5 Z"/></g>
<g><path style="opacity:1" fill="#cbba88" d="M 202.5,281.5 C 204.377,282.659 204.877,284.326 204,286.5C 202.89,288.037 201.39,288.703 199.5,288.5C 201.85,286.787 202.85,284.453 202.5,281.5 Z"/></g>
<g><path style="opacity:0.906" fill="#d1be83" d="M 451.5,281.5 C 455.536,281.572 456.37,283.239 454,286.5C 448.487,290.503 442.653,293.837 436.5,296.5C 437.684,295.312 437.684,294.145 436.5,293C 442.973,291.51 448.64,288.51 453.5,284C 452.944,282.989 452.278,282.156 451.5,281.5 Z"/></g>
<g><path style="opacity:1" fill="#cebb77" d="M 59.5,289.5 C 65.0095,289.36 69.0095,291.693 71.5,296.5C 66.9758,294.957 62.9758,292.623 59.5,289.5 Z"/></g>
<g><path style="opacity:0.859" fill="#d7c493" d="M 315.5,293.5 C 316.833,293.5 318.167,293.5 319.5,293.5C 321.751,294.818 323.751,296.484 325.5,298.5C 321.912,297.202 318.579,295.536 315.5,293.5 Z"/></g>
<g><path style="opacity:1" fill="#d2b670" d="M 435.5,297.5 C 429.874,300.828 424.207,304.161 418.5,307.5C 418.721,306.265 419.388,305.265 420.5,304.5C 419.833,303.5 419.167,302.5 418.5,301.5C 421.475,301.934 424.475,301.434 427.5,300C 427.957,299.586 428.291,299.086 428.5,298.5C 425.643,295.016 426.643,293.349 431.5,293.5C 431.5,294.833 431.5,296.167 431.5,297.5C 432.833,297.5 434.167,297.5 435.5,297.5 Z"/></g>
<g><path style="opacity:1" fill="#d1bd7b" d="M 191.5,292.5 C 189.84,295.151 187.507,297.151 184.5,298.5C 179.114,301.193 173.78,303.86 168.5,306.5C 168.5,305.167 168.5,303.833 168.5,302.5C 172.473,302.404 175.806,301.737 178.5,300.5C 178.5,299.5 178.5,298.5 178.5,297.5C 180.167,297.5 181.833,297.5 183.5,297.5C 183.109,294.162 184.276,293.162 187,294.5C 188.722,294.389 188.888,293.889 187.5,293C 188.793,292.51 190.127,292.343 191.5,292.5 Z"/></g>
<g><path style="opacity:0.986" fill="#d3bf8b" d="M 71.5,296.5 C 74.9336,297.447 78.267,298.614 81.5,300C 83.0414,301.371 84.3747,302.871 85.5,304.5C 80.4997,302.336 75.833,299.669 71.5,296.5 Z"/></g>
<g><path style="opacity:0.945" fill="#d5c192" d="M 326.5,299.5 C 328.292,299.366 329.958,299.699 331.5,300.5C 332.551,301.222 333.218,302.222 333.5,303.5C 330.939,302.455 328.606,301.122 326.5,299.5 Z"/></g>
<g><path style="opacity:0.824" fill="#d6c69a" d="M 301.5,307.5 C 298.381,306.683 295.381,305.683 292.5,304.5C 292.167,304.5 291.833,304.5 291.5,304.5C 291.783,303.711 292.283,303.044 293,302.5C 296.003,304.03 298.836,305.697 301.5,307.5 Z"/></g>
<g><path style="opacity:1" fill="#cdb773" d="M 331.5,300.5 C 332.833,300.5 334.167,300.5 335.5,300.5C 335.5,301.5 335.5,302.5 335.5,303.5C 337.527,303.338 339.527,303.505 341.5,304C 340.549,304.718 340.383,305.551 341,306.5C 343.159,307.155 344.659,308.488 345.5,310.5C 341.492,308.163 337.492,305.83 333.5,303.5C 333.218,302.222 332.551,301.222 331.5,300.5 Z"/></g>
<g><path style="opacity:0.933" fill="#cdbc81" d="M 85.5,304.5 C 86.8734,304.343 88.2068,304.51 89.5,305C 93.0576,307.312 96.391,309.812 99.5,312.5C 94.4997,310.336 89.833,307.669 85.5,304.5 Z"/></g>
<g><path style="opacity:1" fill="#d1bc85" d="M 58.5,311.5 C 54.3223,310.645 50.3223,309.311 46.5,307.5C 45.6143,306.675 45.281,305.675 45.5,304.5C 44.5,304.5 43.5,304.5 42.5,304.5C 42.4828,306.565 42.1495,308.565 41.5,310.5C 40.8968,308.374 40.8968,306.041 41.5,303.5C 47.8402,304.838 53.5068,307.505 58.5,311.5 Z"/></g>
<g><path style="opacity:0.125" fill="#e8dab7" d="M 305.5,309.5 C 307.027,309.427 308.027,310.094 308.5,311.5C 307.833,311.5 307.167,311.5 306.5,311.5C 306.167,310.833 305.833,310.167 305.5,309.5 Z"/></g>
<g><path style="opacity:0.98" fill="#d1be89" d="M 347.5,311.5 C 351.651,312.209 354.984,314.209 357.5,317.5C 354.026,315.682 350.693,313.682 347.5,311.5 Z"/></g>
<g><path style="opacity:1" fill="#ceb05b" d="M 292.5,304.5 C 295.381,305.683 298.381,306.683 301.5,307.5C 302.833,308.167 304.167,308.833 305.5,309.5C 305.833,310.167 306.167,310.833 306.5,311.5C 305.835,314.888 306.835,315.888 309.5,314.5C 312.465,315.709 315.465,316.709 318.5,317.5C 318.833,317.5 319.167,317.5 319.5,317.5C 319.5,318.5 319.5,319.5 319.5,320.5C 323.363,321.849 327.03,323.683 330.5,326C 331.793,326.49 333.127,326.657 334.5,326.5C 335.167,326.833 335.833,327.167 336.5,327.5C 336.5,328.5 336.5,329.5 336.5,330.5C 341.595,333.044 346.928,335.044 352.5,336.5C 352.572,338.311 353.405,339.644 355,340.5C 357.744,341.803 360.577,342.803 363.5,343.5C 363.833,343.5 364.167,343.5 364.5,343.5C 364.782,344.778 365.449,345.778 366.5,346.5C 366.5,375.5 366.5,404.5 366.5,433.5C 364.784,433.371 363.117,433.038 361.5,432.5C 359.168,429.728 356.168,428.061 352.5,427.5C 351.833,427.5 351.5,427.167 351.5,426.5C 351.586,425.504 351.252,424.671 350.5,424C 347.441,423.942 345.108,422.609 343.5,420C 340.898,418.86 338.231,418.027 335.5,417.5C 333.216,417.025 331.216,416.025 329.5,414.5C 328.313,412.025 326.313,411.025 323.5,411.5C 323.5,411.167 323.5,410.833 323.5,410.5C 322.191,407.549 319.857,406.216 316.5,406.5C 314.879,404.058 312.546,402.725 309.5,402.5C 305.951,398.629 301.618,395.963 296.5,394.5C 296.167,394.5 295.833,394.5 295.5,394.5C 294.878,393.373 294.045,392.373 293,391.5C 292.5,362.502 292.333,333.502 292.5,304.5 Z"/></g>
<g><path style="opacity:0.09" fill="#eae2b9" d="M 446.5,313.5 C 445.71,314.401 444.71,315.068 443.5,315.5C 443.821,313.952 444.821,313.285 446.5,313.5 Z"/></g>
<g><path style="opacity:1" fill="#ceb05b" d="M 58.5,311.5 C 59.0843,313.257 60.251,314.59 62,315.5C 67.1574,318.328 72.3241,320.994 77.5,323.5C 79.4803,325.591 81.8137,327.424 84.5,329C 84.1667,329.333 83.8333,329.667 83.5,330C 86.4781,330.696 89.4781,331.196 92.5,331.5C 93.6594,333.25 95.326,334.25 97.5,334.5C 98.292,336.257 99.6253,337.591 101.5,338.5C 107.288,340.692 112.622,343.692 117.5,347.5C 118.5,376.159 118.833,404.826 118.5,433.5C 116.712,433.785 115.045,433.452 113.5,432.5C 110.376,430.548 107.376,428.381 104.5,426C 102.134,425.56 99.8008,425.06 97.5,424.5C 91.188,421.679 85.188,418.345 79.5,414.5C 79.5858,413.504 79.2524,412.671 78.5,412C 73.6303,409.003 68.6303,406.503 63.5,404.5C 60.5578,403.696 57.8911,402.362 55.5,400.5C 55.6107,399.883 55.944,399.383 56.5,399C 53.7649,397.085 50.7649,395.918 47.5,395.5C 45.8657,394.028 44.3657,392.362 43,390.5C 42.8157,364.124 42.3157,337.791 41.5,311.5C 41.5,311.167 41.5,310.833 41.5,310.5C 42.1495,308.565 42.4828,306.565 42.5,304.5C 43.5,304.5 44.5,304.5 45.5,304.5C 45.281,305.675 45.6143,306.675 46.5,307.5C 50.3223,309.311 54.3223,310.645 58.5,311.5 Z"/></g>
<g><path style="opacity:0.765" fill="#d5c48b" d="M 99.5,312.5 C 103.605,313.283 106.939,315.283 109.5,318.5C 105.759,317.115 102.426,315.115 99.5,312.5 Z"/></g>
<g><path style="opacity:1" fill="#cebb78" d="M 306.5,311.5 C 307.167,311.5 307.833,311.5 308.5,311.5C 312.457,312.583 315.79,314.583 318.5,317.5C 315.465,316.709 312.465,315.709 309.5,314.5C 306.835,315.888 305.835,314.888 306.5,311.5 Z"/></g>
<g><path style="opacity:0.936" fill="#c4ad6c" d="M 291.5,304.5 C 291.833,304.5 292.167,304.5 292.5,304.5C 292.333,333.502 292.5,362.502 293,391.5C 294.045,392.373 294.878,393.373 295.5,394.5C 293.983,394.489 292.816,393.823 292,392.5C 291.5,363.169 291.333,333.835 291.5,304.5 Z"/></g>
<g><path style="opacity:1" fill="#d1b874" d="M 405.5,314.5 C 401.271,317.155 396.938,319.821 392.5,322.5C 392.104,319.956 392.771,317.789 394.5,316C 398.114,315.064 401.78,314.564 405.5,314.5 Z"/></g>
<g><path style="opacity:1" fill="#ceb15b" d="M 215.5,392.5 C 213.738,392.357 212.071,392.691 210.5,393.5C 209.833,392.5 209.167,391.5 208.5,390.5C 207.253,392.006 207.253,393.506 208.5,395C 205.639,396.64 202.639,397.807 199.5,398.5C 199.5,399.5 199.5,400.5 199.5,401.5C 195.541,401.147 192.874,402.813 191.5,406.5C 189.57,408.45 187.237,409.783 184.5,410.5C 181.169,410.578 178.502,411.245 176.5,412.5C 176.5,413.5 176.5,414.5 176.5,415.5C 172.817,414.68 170.483,416.013 169.5,419.5C 162.727,423.788 155.727,427.788 148.5,431.5C 145.779,431.963 143.112,432.629 140.5,433.5C 140.167,404.492 140.5,375.492 141.5,346.5C 143.747,345.626 146.08,345.292 148.5,345.5C 148.704,343.315 149.37,341.315 150.5,339.5C 150.833,339.5 151.167,339.5 151.5,339.5C 158.031,337.41 163.698,334.076 168.5,329.5C 170.566,327.801 172.9,326.468 175.5,325.5C 181.806,323.977 187.139,320.977 191.5,316.5C 196.195,313.169 201.195,310.169 206.5,307.5C 209.39,307.722 212.057,307.055 214.5,305.5C 215.5,334.492 215.833,363.492 215.5,392.5 Z"/></g>
<g><path style="opacity:0.904" fill="#c5af69" d="M 211.5,304.5 C 213.167,304.5 214.833,304.5 216.5,304.5C 216.5,333.5 216.5,362.5 216.5,391.5C 216.5,392.167 216.167,392.5 215.5,392.5C 215.833,363.492 215.5,334.492 214.5,305.5C 212.057,307.055 209.39,307.722 206.5,307.5C 207.913,306.065 209.58,305.065 211.5,304.5 Z"/></g>
<g><path style="opacity:0.965" fill="#d6c591" d="M 357.5,317.5 C 361.264,318.701 364.93,320.201 368.5,322C 369.381,322.708 370.047,323.542 370.5,324.5C 365.91,322.561 361.577,320.227 357.5,317.5 Z"/></g>
<g><path style="opacity:1" fill="#ceb05b" d="M 465.5,390.5 C 465.047,391.458 464.381,392.292 463.5,393C 460.853,394.299 458.186,395.632 455.5,397C 454.748,397.671 454.414,398.504 454.5,399.5C 448.617,400.075 443.45,402.409 439,406.5C 438.228,406.355 437.561,406.022 437,405.5C 436.579,408.02 435.412,410.02 433.5,411.5C 429.403,411.378 426.403,413.044 424.5,416.5C 421.873,417.092 419.206,417.425 416.5,417.5C 416.5,418.5 416.5,419.5 416.5,420.5C 412.759,419.599 410.759,420.932 410.5,424.5C 407.252,424.664 404.252,425.664 401.5,427.5C 400.388,428.265 399.721,429.265 399.5,430.5C 398.564,431.974 397.23,432.974 395.5,433.5C 394.167,433.5 392.833,433.5 391.5,433.5C 390.342,404.905 390.176,376.239 391,347.5C 393.116,345.208 395.282,343.208 397.5,341.5C 399.883,339.642 402.55,338.308 405.5,337.5C 409.365,336.739 412.365,334.739 414.5,331.5C 414.833,331.5 415.167,331.5 415.5,331.5C 422.037,329.234 428.371,326.4 434.5,323C 438.012,320.939 441.012,318.439 443.5,315.5C 444.71,315.068 445.71,314.401 446.5,313.5C 449.727,312.256 453.061,311.09 456.5,310C 458.78,307.598 461.447,305.765 464.5,304.5C 465.5,333.159 465.833,361.826 465.5,390.5 Z"/></g>
<g><path style="opacity:0.92" fill="#c8b172" d="M 41.5,311.5 C 42.3157,337.791 42.8157,364.124 43,390.5C 44.3657,392.362 45.8657,394.028 47.5,395.5C 45.5588,395.131 43.7255,394.464 42,393.5C 41.8204,366.637 41.3204,339.803 40.5,313C 40.5699,312.235 40.9033,311.735 41.5,311.5 Z"/></g>
<g><path style="opacity:0.855" fill="#d1c18f" d="M 58.5,311.5 C 65.4408,314.789 71.7741,318.789 77.5,323.5C 72.3241,320.994 67.1574,318.328 62,315.5C 60.251,314.59 59.0843,313.257 58.5,311.5 Z"/></g>
<g><path style="opacity:0.718" fill="#d4c289" d="M 110.5,319.5 C 110.56,318.957 110.893,318.624 111.5,318.5C 114.873,319.614 117.54,321.614 119.5,324.5C 116.622,322.649 113.622,320.982 110.5,319.5 Z"/></g>
<g><path style="opacity:0.906" fill="#cebd82" d="M 319.5,317.5 C 324.706,320.265 329.706,323.265 334.5,326.5C 333.127,326.657 331.793,326.49 330.5,326C 327.03,323.683 323.363,321.849 319.5,320.5C 319.5,319.5 319.5,318.5 319.5,317.5 Z"/></g>
<g><path style="opacity:0.773" fill="#d2c18a" d="M 191.5,316.5 C 187.139,320.977 181.806,323.977 175.5,325.5C 180.499,322.063 185.833,319.063 191.5,316.5 Z"/></g>
<g><path style="opacity:0.031" fill="#e3daba" d="M 78.5,323.5 C 80.3797,323.229 81.713,323.896 82.5,325.5C 80.847,325.34 79.5137,324.674 78.5,323.5 Z"/></g>
<g><path style="opacity:1" fill="#cdba78" d="M 168.5,306.5 C 156.386,314.063 144.053,321.396 131.5,328.5C 128.411,329.627 125.744,328.961 123.5,326.5C 126.518,326.665 129.518,326.498 132.5,326C 132.167,325.667 131.833,325.333 131.5,325C 134.324,324.772 136.657,323.605 138.5,321.5C 141.08,320.451 143.746,319.784 146.5,319.5C 146.5,318.5 146.5,317.5 146.5,316.5C 148.737,315.551 151.071,314.884 153.5,314.5C 151.853,309.984 153.353,308.65 158,310.5C 159.899,310.102 161.399,309.102 162.5,307.5C 164.396,306.534 166.396,306.201 168.5,306.5 Z"/></g>
<g><path style="opacity:0.984" fill="#cfbe86" d="M 443.5,315.5 C 441.012,318.439 438.012,320.939 434.5,323C 428.371,326.4 422.037,329.234 415.5,331.5C 422.435,327.024 429.435,322.524 436.5,318C 438.854,317.153 441.188,316.32 443.5,315.5 Z"/></g>
<g><path style="opacity:0.961" fill="#cdb87b" d="M 77.5,323.5 C 77.8333,323.5 78.1667,323.5 78.5,323.5C 79.5137,324.674 80.847,325.34 82.5,325.5C 86.173,327 89.5063,329 92.5,331.5C 89.4781,331.196 86.4781,330.696 83.5,330C 83.8333,329.667 84.1667,329.333 84.5,329C 81.8137,327.424 79.4803,325.591 77.5,323.5 Z"/></g>
<g><path style="opacity:1" fill="#cfbc83" d="M 389.5,323.5 C 386.422,326.126 382.922,328.126 379,329.5C 375.505,328.814 372.672,327.148 370.5,324.5C 373.209,325.013 375.709,326.013 378,327.5C 381.783,325.848 385.617,324.515 389.5,323.5 Z"/></g>
<g><path style="opacity:0.933" fill="#ceba7f" d="M 466.5,390.5 C 466.167,390.5 465.833,390.5 465.5,390.5C 465.833,361.826 465.5,333.159 464.5,304.5C 461.447,305.765 458.78,307.598 456.5,310C 453.061,311.09 449.727,312.256 446.5,313.5C 452.484,308.836 459.151,305.503 466.5,303.5C 467.813,332.64 467.813,361.64 466.5,390.5 Z"/></g>
<g><path style="opacity:0.965" fill="#d2c082" d="M 336.5,327.5 C 342.13,330.138 347.463,333.138 352.5,336.5C 346.928,335.044 341.595,333.044 336.5,330.5C 336.5,329.5 336.5,328.5 336.5,327.5 Z"/></g>
<g><path style="opacity:0.475" fill="#d9cea3" d="M 92.5,331.5 C 94.9328,331.273 96.5994,332.273 97.5,334.5C 95.326,334.25 93.6594,333.25 92.5,331.5 Z"/></g>
<g><path style="opacity:0.722" fill="#d3bf8c" d="M 168.5,329.5 C 163.698,334.076 158.031,337.41 151.5,339.5C 156.934,335.797 162.601,332.464 168.5,329.5 Z"/></g>
<g><path style="opacity:0.8" fill="#d3c28e" d="M 414.5,331.5 C 412.365,334.739 409.365,336.739 405.5,337.5C 405.369,336.624 405.702,335.957 406.5,335.5C 409.426,334.547 412.093,333.213 414.5,331.5 Z"/></g>
<g><path style="opacity:0.243" fill="#ebddad" d="M 216.5,391.5 C 216.5,362.5 216.5,333.5 216.5,304.5C 214.833,304.5 213.167,304.5 211.5,304.5C 213.044,303.086 214.711,302.753 216.5,303.5C 217.83,332.997 217.83,362.331 216.5,391.5 Z"/></g>
<g><path style="opacity:1" fill="#dfcc9a" d="M 97.5,334.5 C 105.08,337.66 112.246,341.66 119,346.5C 119.83,376.003 119.664,405.336 118.5,434.5C 118.5,434.167 118.5,433.833 118.5,433.5C 118.833,404.826 118.5,376.159 117.5,347.5C 112.622,343.692 107.288,340.692 101.5,338.5C 99.6253,337.591 98.292,336.257 97.5,334.5 Z"/></g>
<g><path style="opacity:0.988" fill="#d4c38b" d="M 352.5,336.5 C 356.499,338.389 360.166,340.723 363.5,343.5C 360.577,342.803 357.744,341.803 355,340.5C 353.405,339.644 352.572,338.311 352.5,336.5 Z"/></g>
<g><path style="opacity:1" fill="#c9b169" d="M 366.5,346.5 C 367.498,375.662 367.831,404.995 367.5,434.5C 367.44,435.043 367.107,435.376 366.5,435.5C 364.402,435.043 362.736,434.043 361.5,432.5C 363.117,433.038 364.784,433.371 366.5,433.5C 366.5,404.5 366.5,375.5 366.5,346.5 Z"/></g>
<g><path style="opacity:0.118" fill="#d6c898" d="M 388.5,349.5 C 388.836,377.682 389.836,405.682 391.5,433.5C 392.833,433.5 394.167,433.5 395.5,433.5C 393.622,435.509 391.456,435.842 389,434.5C 388.5,406.169 388.333,377.835 388.5,349.5 Z"/></g>
<g><path style="opacity:0.786" fill="#c4ad68" d="M 150.5,339.5 C 149.37,341.315 148.704,343.315 148.5,345.5C 146.08,345.292 143.747,345.626 141.5,346.5C 140.5,375.492 140.167,404.492 140.5,433.5C 140.167,433.5 139.833,433.5 139.5,433.5C 139.167,404.159 139.5,374.826 140.5,345.5C 143.612,343.039 146.945,341.039 150.5,339.5 Z"/></g>
<g><path style="opacity:0.52" fill="#cbbd8c" d="M 364.5,343.5 C 365.721,344.028 366.887,344.695 368,345.5C 368.831,375.336 368.664,405.003 367.5,434.5C 367.831,404.995 367.498,375.662 366.5,346.5C 365.449,345.778 364.782,344.778 364.5,343.5 Z"/></g>
<g><path style="opacity:1" fill="#c8b26c" d="M 397.5,341.5 C 395.282,343.208 393.116,345.208 391,347.5C 390.176,376.239 390.342,404.905 391.5,433.5C 389.836,405.682 388.836,377.682 388.5,349.5C 390.22,345.45 393.22,342.783 397.5,341.5 Z"/></g>
<g><path style="opacity:0.525" fill="#d6c092" d="M 465.5,390.5 C 465.833,390.5 466.167,390.5 466.5,390.5C 466.461,391.583 466.127,392.583 465.5,393.5C 461.975,395.762 458.309,397.762 454.5,399.5C 454.414,398.504 454.748,397.671 455.5,397C 458.186,395.632 460.853,394.299 463.5,393C 464.381,392.292 465.047,391.458 465.5,390.5 Z"/></g>
<g><path style="opacity:0.996" fill="#cbbb7d" d="M 47.5,395.5 C 50.7649,395.918 53.7649,397.085 56.5,399C 55.944,399.383 55.6107,399.883 55.5,400.5C 52.3288,399.564 49.6621,397.897 47.5,395.5 Z"/></g>
<g><path style="opacity:0.925" fill="#cdbc80" d="M 296.5,394.5 C 301.618,395.963 305.951,398.629 309.5,402.5C 304.653,400.65 300.32,397.983 296.5,394.5 Z"/></g>
<g><path style="opacity:0.996" fill="#d1ba79" d="M 215.5,392.5 C 207.867,397.655 199.867,402.322 191.5,406.5C 192.874,402.813 195.541,401.147 199.5,401.5C 199.5,400.5 199.5,399.5 199.5,398.5C 202.639,397.807 205.639,396.64 208.5,395C 207.253,393.506 207.253,392.006 208.5,390.5C 209.167,391.5 209.833,392.5 210.5,393.5C 212.071,392.691 213.738,392.357 215.5,392.5 Z"/></g>
<g><path style="opacity:0.702" fill="#d2bf8c" d="M 309.5,402.5 C 312.546,402.725 314.879,404.058 316.5,406.5C 313.9,405.532 311.566,404.199 309.5,402.5 Z"/></g>
<g><path style="opacity:1" fill="#d0bc79" d="M 454.5,399.5 C 447.694,403.74 440.694,407.74 433.5,411.5C 435.412,410.02 436.579,408.02 437,405.5C 437.561,406.022 438.228,406.355 439,406.5C 443.45,402.409 448.617,400.075 454.5,399.5 Z"/></g>
<g><path style="opacity:0.965" fill="#cdbc7c" d="M 316.5,406.5 C 319.857,406.216 322.191,407.549 323.5,410.5C 320.669,409.921 318.336,408.588 316.5,406.5 Z"/></g>
<g><path style="opacity:0.871" fill="#d1bf86" d="M 63.5,404.5 C 68.6303,406.503 73.6303,409.003 78.5,412C 79.2524,412.671 79.5858,413.504 79.5,414.5C 73.7612,411.785 68.4278,408.451 63.5,404.5 Z"/></g>
<g><path style="opacity:0.698" fill="#d8ca9b" d="M 323.5,411.5 C 326.313,411.025 328.313,412.025 329.5,414.5C 327.456,413.492 325.456,412.492 323.5,411.5 Z"/></g>
<g><path style="opacity:0.961" fill="#d2bc7b" d="M 184.5,410.5 C 182.281,412.624 179.614,414.291 176.5,415.5C 176.5,414.5 176.5,413.5 176.5,412.5C 178.502,411.245 181.169,410.578 184.5,410.5 Z"/></g>
<g><path style="opacity:0.98" fill="#d0bf87" d="M 433.5,411.5 C 430.76,413.56 427.76,415.226 424.5,416.5C 426.403,413.044 429.403,411.378 433.5,411.5 Z"/></g>
<g><path style="opacity:0.816" fill="#d0be87" d="M 176.5,415.5 C 174.435,417.216 172.102,418.549 169.5,419.5C 170.483,416.013 172.817,414.68 176.5,415.5 Z"/></g>
<g><path style="opacity:1" fill="#cfb97d" d="M 335.5,417.5 C 338.231,418.027 340.898,418.86 343.5,420C 345.108,422.609 347.441,423.942 350.5,424C 351.252,424.671 351.586,425.504 351.5,426.5C 345.746,424.249 340.413,421.249 335.5,417.5 Z"/></g>
<g><path style="opacity:1" fill="#ceba74" d="M 424.5,416.5 C 420.135,419.683 415.468,422.35 410.5,424.5C 410.759,420.932 412.759,419.599 416.5,420.5C 416.5,419.5 416.5,418.5 416.5,417.5C 419.206,417.425 421.873,417.092 424.5,416.5 Z"/></g>
<g><path style="opacity:1" fill="#d1be84" d="M 228.5,421.5 C 226.94,421.481 225.44,421.148 224,420.5C 219.911,422.472 215.744,424.138 211.5,425.5C 215.435,423.175 219.435,420.842 223.5,418.5C 225.692,418.757 227.359,419.757 228.5,421.5 Z"/></g>
<g><path style="opacity:1" fill="#ceba7d" d="M 290.5,421.5 C 290.5,422.167 290.5,422.833 290.5,423.5C 287.997,422.916 285.497,422.249 283,421.5C 278.485,423.678 273.985,425.678 269.5,427.5C 274.046,423.637 279.213,420.637 285,418.5C 286.765,419.632 288.598,420.632 290.5,421.5 Z"/></g>
<g><path style="opacity:0.455" fill="#e5d7b7" d="M 290.5,421.5 C 291.71,421.932 292.71,422.599 293.5,423.5C 292.5,423.5 291.5,423.5 290.5,423.5C 290.5,422.833 290.5,422.167 290.5,421.5 Z"/></g>
<g><path style="opacity:1" fill="#cdb979" d="M 410.5,424.5 C 408.41,426.39 406.077,428.057 403.5,429.5C 402.311,430.429 400.978,430.762 399.5,430.5C 399.721,429.265 400.388,428.265 401.5,427.5C 404.252,425.664 407.252,424.664 410.5,424.5 Z"/></g>
<g><path style="opacity:1" fill="#ceb15c" d="M 228.5,421.5 C 228.833,421.5 229.167,421.5 229.5,421.5C 229.821,423.048 230.821,423.715 232.5,423.5C 232.821,425.048 233.821,425.715 235.5,425.5C 235.5,426.833 235.5,428.167 235.5,429.5C 237.833,429.5 240.167,429.5 242.5,429.5C 246.472,432.269 250.805,434.269 255.5,435.5C 259.8,433.561 264.133,431.561 268.5,429.5C 269.298,429.043 269.631,428.376 269.5,427.5C 273.985,425.678 278.485,423.678 283,421.5C 285.497,422.249 287.997,422.916 290.5,423.5C 291.5,423.5 292.5,423.5 293.5,423.5C 295.882,424.351 297.882,425.684 299.5,427.5C 299.414,428.496 299.748,429.329 300.5,430C 303.838,431.704 306.838,433.204 309.5,434.5C 310.452,436.045 310.785,437.712 310.5,439.5C 307.966,439.259 306.3,440.259 305.5,442.5C 302.873,443.092 300.206,443.425 297.5,443.5C 296.48,446.843 294.146,448.843 290.5,449.5C 289.388,450.265 288.721,451.265 288.5,452.5C 285.204,454.821 281.871,457.154 278.5,459.5C 276.712,458.378 274.712,458.211 272.5,459C 272.957,459.414 273.291,459.914 273.5,460.5C 272.757,461.182 272.091,461.849 271.5,462.5C 268.077,462.124 265.744,463.457 264.5,466.5C 261.149,467.709 256.982,468.709 252,469.5C 249.558,469.518 247.392,468.851 245.5,467.5C 243.974,464.107 241.307,462.774 237.5,463.5C 237.5,463.167 237.5,462.833 237.5,462.5C 237.5,461.5 237.5,460.5 237.5,459.5C 232.599,457.55 227.599,455.884 222.5,454.5C 220.879,452.058 218.546,450.725 215.5,450.5C 211.429,449.253 207.762,447.253 204.5,444.5C 204.027,443.094 203.027,442.427 201.5,442.5C 200.492,440.661 198.992,439.328 197,438.5C 196.333,437.5 196.333,436.5 197,435.5C 201.431,432.675 206.264,430.675 211.5,429.5C 211.5,428.167 211.5,426.833 211.5,425.5C 215.744,424.138 219.911,422.472 224,420.5C 225.44,421.148 226.94,421.481 228.5,421.5 Z"/></g>
<g><path style="opacity:0.506" fill="#e3dab0" d="M 232.5,423.5 C 233.71,423.932 234.71,424.599 235.5,425.5C 233.821,425.715 232.821,425.048 232.5,423.5 Z"/></g>
<g><path style="opacity:0.533" fill="#dbccad" d="M 229.5,421.5 C 230.71,421.932 231.71,422.599 232.5,423.5C 230.821,423.715 229.821,423.048 229.5,421.5 Z"/></g>
<g><path style="opacity:0.992" fill="#cebe87" d="M 352.5,427.5 C 356.168,428.061 359.168,429.728 361.5,432.5C 358.144,431.389 355.144,429.723 352.5,427.5 Z"/></g>
<g><path style="opacity:1" fill="#d0be7e" d="M 235.5,425.5 C 238.317,426.095 240.65,427.428 242.5,429.5C 240.167,429.5 237.833,429.5 235.5,429.5C 235.5,428.167 235.5,426.833 235.5,425.5 Z"/></g>
<g><path style="opacity:1" fill="#cec089" d="M 299.5,427.5 C 304.11,429.608 308.61,431.941 313,434.5C 313.798,436.259 313.631,437.926 312.5,439.5C 310.338,441.02 308.005,442.02 305.5,442.5C 306.3,440.259 307.966,439.259 310.5,439.5C 310.785,437.712 310.452,436.045 309.5,434.5C 306.838,433.204 303.838,431.704 300.5,430C 299.748,429.329 299.414,428.496 299.5,427.5 Z"/></g>
<g><path style="opacity:0.98" fill="#ccb77c" d="M 97.5,424.5 C 99.8008,425.06 102.134,425.56 104.5,426C 107.376,428.381 110.376,430.548 113.5,432.5C 115.045,433.452 116.712,433.785 118.5,433.5C 118.5,433.833 118.5,434.167 118.5,434.5C 118.265,435.097 117.765,435.43 117,435.5C 109.886,432.699 103.386,429.032 97.5,424.5 Z"/></g>
<g><path style="opacity:0.945" fill="#d1bf8c" d="M 148.5,431.5 C 146.135,433.527 143.469,435.193 140.5,436.5C 139.614,435.675 139.281,434.675 139.5,433.5C 139.833,433.5 140.167,433.5 140.5,433.5C 143.112,432.629 145.779,431.963 148.5,431.5 Z"/></g>
<g><path style="opacity:1" fill="#cfba7e" d="M 211.5,425.5 C 211.5,426.833 211.5,428.167 211.5,429.5C 206.264,430.675 201.431,432.675 197,435.5C 196.333,436.5 196.333,437.5 197,438.5C 198.992,439.328 200.492,440.661 201.5,442.5C 199.417,441.412 197.251,440.412 195,439.5C 194.333,437.833 194.333,436.167 195,434.5C 200.346,431.218 205.846,428.218 211.5,425.5 Z"/></g>
<g><path style="opacity:0.663" fill="#d5c895" d="M 269.5,427.5 C 269.631,428.376 269.298,429.043 268.5,429.5C 264.133,431.561 259.8,433.561 255.5,435.5C 259.474,431.84 264.141,429.173 269.5,427.5 Z"/></g>
<g><path style="opacity:0.322" fill="#decaa6" d="M 201.5,442.5 C 203.027,442.427 204.027,443.094 204.5,444.5C 202.973,444.573 201.973,443.906 201.5,442.5 Z"/></g>
<g><path style="opacity:1" fill="#cdba78" d="M 305.5,442.5 C 300.583,446.936 294.917,450.269 288.5,452.5C 288.721,451.265 289.388,450.265 290.5,449.5C 294.146,448.843 296.48,446.843 297.5,443.5C 300.206,443.425 302.873,443.092 305.5,442.5 Z"/></g>
<g><path style="opacity:0.659" fill="#cebd89" d="M 215.5,450.5 C 218.546,450.725 220.879,452.058 222.5,454.5C 219.9,453.532 217.566,452.199 215.5,450.5 Z"/></g>
<g><path style="opacity:1" fill="#d4c082" d="M 278.5,459.5 C 276.355,460.989 274.022,461.989 271.5,462.5C 272.091,461.849 272.757,461.182 273.5,460.5C 273.291,459.914 272.957,459.414 272.5,459C 274.712,458.211 276.712,458.378 278.5,459.5 Z"/></g>
<g><path style="opacity:1" fill="#ceb771" d="M 222.5,454.5 C 227.599,455.884 232.599,457.55 237.5,459.5C 237.5,460.5 237.5,461.5 237.5,462.5C 234.986,462.246 232.652,461.413 230.5,460C 227.593,458.391 224.927,456.558 222.5,454.5 Z"/></g>
<g><path style="opacity:0.992" fill="#d1bf7d" d="M 271.5,462.5 C 269.66,464.669 267.326,466.002 264.5,466.5C 265.744,463.457 268.077,462.124 271.5,462.5 Z"/></g>
<g><path style="opacity:0.982" fill="#d4c381" d="M 237.5,463.5 C 241.307,462.774 243.974,464.107 245.5,467.5C 242.279,467.104 239.612,465.771 237.5,463.5 Z"/></g>
<g><path style="opacity:0.873" fill="#d1c08b" d="M 264.5,466.5 C 261.637,469.754 257.97,471.087 253.5,470.5C 251.5,470.333 249.5,470.167 247.5,470C 246.619,469.292 245.953,468.458 245.5,467.5C 247.392,468.851 249.558,469.518 252,469.5C 256.982,468.709 261.149,467.709 264.5,466.5 Z"/></g>
</svg>
