<?xml version="1.0" encoding="UTF-8"?>
<!DOCTYPE svg PUBLIC "-//W3C//DTD SVG 1.1//EN" "http://www.w3.org/Graphics/SVG/1.1/DTD/svg11.dtd">
<svg xmlns="http://www.w3.org/2000/svg" version="1.1" width="512px" height="512px" style="shape-rendering:geometricPrecision; text-rendering:geometricPrecision; image-rendering:optimizeQuality; fill-rule:evenodd; clip-rule:evenodd" xmlns:xlink="http://www.w3.org/1999/xlink">
<g><path style="opacity:0.977" fill="#ceb159" d="M 233.5,-0.5 C 248.167,-0.5 262.833,-0.5 277.5,-0.5C 278.167,0.166667 278.833,0.833333 279.5,1.5C 282.206,4.047 285.872,6.047 290.5,7.5C 297.167,12.1667 302.833,17.8333 307.5,24.5C 309.074,29.3195 311.407,33.6528 314.5,37.5C 317.709,44.3687 319.043,51.7021 318.5,59.5C 319.017,68.0788 317.351,76.0788 313.5,83.5C 310.953,86.2056 308.953,89.8723 307.5,94.5C 302.833,101.167 297.167,106.833 290.5,111.5C 285.872,112.953 282.206,114.953 279.5,117.5C 279.389,118.117 279.056,118.617 278.5,119C 283.453,120.368 288.12,122.201 292.5,124.5C 294.529,126.716 297.529,128.382 301.5,129.5C 311.607,135.09 320.44,142.423 328,151.5C 331.483,155.807 334.317,160.473 336.5,165.5C 337.079,168.331 338.412,170.664 340.5,172.5C 344.373,180.303 346.873,188.636 348,197.5C 348.667,211.833 348.667,226.167 348,240.5C 347.167,241.333 346.333,242.167 345.5,243C 321.502,243.5 297.502,243.667 273.5,243.5C 273.333,274.168 273.5,304.835 274,335.5C 307.649,356.733 341.149,378.066 374.5,399.5C 375.251,400.573 376.251,400.74 377.5,400C 380.898,398.643 383.898,396.81 386.5,394.5C 390.5,392.833 394.5,391.167 398.5,389.5C 399.738,389.19 399.738,388.69 398.5,388C 394.598,385.881 390.598,384.048 386.5,382.5C 379.833,377.833 374.167,372.167 369.5,365.5C 368.047,360.872 366.047,357.206 363.5,354.5C 359.649,347.079 357.983,339.079 358.5,330.5C 357.957,322.702 359.291,315.369 362.5,308.5C 365.593,304.653 367.926,300.32 369.5,295.5C 374.167,288.833 379.833,283.167 386.5,278.5C 391.32,276.926 395.653,274.593 399.5,271.5C 406.369,268.291 413.702,266.957 421.5,267.5C 430.079,266.983 438.079,268.649 445.5,272.5C 448.206,275.047 451.872,277.047 456.5,278.5C 463.167,283.167 468.833,288.833 473.5,295.5C 475.074,300.32 477.407,304.653 480.5,308.5C 483.709,315.369 485.043,322.702 484.5,330.5C 485.017,339.079 483.351,347.079 479.5,354.5C 476.953,357.206 474.953,360.872 473.5,365.5C 468.833,372.167 463.167,377.833 456.5,382.5C 451.872,383.953 448.206,385.953 445.5,388.5C 445.389,389.117 445.056,389.617 444.5,390C 449.453,391.368 454.12,393.201 458.5,395.5C 460.529,397.716 463.529,399.382 467.5,400.5C 477.607,406.09 486.44,413.423 494,422.5C 497.483,426.807 500.317,431.473 502.5,436.5C 503.079,439.331 504.412,441.664 506.5,443.5C 508.36,447.083 510.027,450.749 511.5,454.5C 511.5,473.5 511.5,492.5 511.5,511.5C 450.5,511.5 389.5,511.5 328.5,511.5C 328.333,497.163 328.5,482.829 329,468.5C 330.022,459.61 332.522,451.277 336.5,443.5C 338.924,440.992 340.59,437.992 341.5,434.5C 342.854,430.968 344.854,427.802 347.5,425C 316.963,405.568 286.297,386.401 255.5,367.5C 224.703,386.401 194.037,405.568 163.5,425C 166.146,427.802 168.146,430.968 169.5,434.5C 170.41,437.992 172.076,440.992 174.5,443.5C 178.478,451.277 180.978,459.61 182,468.5C 182.5,482.829 182.667,497.163 182.5,511.5C 121.5,511.5 60.5,511.5 -0.5,511.5C -0.5,492.5 -0.5,473.5 -0.5,454.5C 0.972887,450.749 2.63955,447.083 4.5,443.5C 6.58797,441.664 7.9213,439.331 8.5,436.5C 14.0328,425.448 21.6995,415.948 31.5,408C 35.388,405.228 39.388,402.728 43.5,400.5C 47.6553,399.258 51.322,397.258 54.5,394.5C 58.51,392.827 62.51,391.161 66.5,389.5C 67.7383,389.19 67.7383,388.69 66.5,388C 62.5977,385.881 58.5977,384.048 54.5,382.5C 47.8333,377.833 42.1667,372.167 37.5,365.5C 36.047,360.872 34.047,357.206 31.5,354.5C 27.6493,347.079 25.9827,339.079 26.5,330.5C 25.9572,322.702 27.2906,315.369 30.5,308.5C 33.5926,304.653 35.9259,300.32 37.5,295.5C 42.1667,288.833 47.8333,283.167 54.5,278.5C 59.3195,276.926 63.6528,274.593 67.5,271.5C 74.3687,268.291 81.7021,266.957 89.5,267.5C 98.0788,266.983 106.079,268.649 113.5,272.5C 116.206,275.047 119.872,277.047 124.5,278.5C 131.167,283.167 136.833,288.833 141.5,295.5C 143.074,300.32 145.407,304.653 148.5,308.5C 151.709,315.369 153.043,322.702 152.5,330.5C 153.017,339.079 151.351,347.079 147.5,354.5C 144.953,357.206 142.953,360.872 141.5,365.5C 136.833,372.167 131.167,377.833 124.5,382.5C 119.872,383.953 116.206,385.953 113.5,388.5C 113.389,389.117 113.056,389.617 112.5,390C 117.464,391.371 122.131,393.204 126.5,395.5C 127.93,397.294 130.263,398.794 133.5,400C 134.749,400.74 135.749,400.573 136.5,399.5C 169.851,378.066 203.351,356.733 237,335.5C 237.5,304.835 237.667,274.168 237.5,243.5C 213.498,243.667 189.498,243.5 165.5,243C 164.667,242.167 163.833,241.333 163,240.5C 162.333,226.167 162.333,211.833 163,197.5C 164.127,188.636 166.627,180.303 170.5,172.5C 172.588,170.664 173.921,168.331 174.5,165.5C 180.033,154.448 187.7,144.948 197.5,137C 201.388,134.228 205.388,131.728 209.5,129.5C 213.655,128.258 217.322,126.258 220.5,123.5C 224.51,121.827 228.51,120.161 232.5,118.5C 233.738,118.19 233.738,117.69 232.5,117C 228.598,114.881 224.598,113.048 220.5,111.5C 213.833,106.833 208.167,101.167 203.5,94.5C 202.047,89.8723 200.047,86.2056 197.5,83.5C 193.649,76.0788 191.983,68.0788 192.5,59.5C 191.957,51.7021 193.291,44.3687 196.5,37.5C 199.593,33.6528 201.926,29.3195 203.5,24.5C 208.167,17.8333 213.833,12.1667 220.5,7.5C 225.32,5.9259 229.653,3.59256 233.5,0.5C 233.5,0.166667 233.5,-0.166667 233.5,-0.5 Z M 248.5,33.5 C 272.648,31.4808 283.481,42.4808 281,66.5C 275.444,81.5372 264.611,87.7039 248.5,85C 233.463,79.4441 227.296,68.6108 230,52.5C 231.514,47.9715 233.681,43.8048 236.5,40C 240.434,37.5361 244.434,35.3694 248.5,33.5 Z M 275.5,156.5 C 278.378,158.105 281.378,159.439 284.5,160.5C 293.55,165.884 300.55,173.217 305.5,182.5C 305.893,184.284 306.559,185.95 307.5,187.5C 310.098,193.895 311.431,200.562 311.5,207.5C 274.167,207.5 236.833,207.5 199.5,207.5C 199.569,200.562 200.902,193.895 203.5,187.5C 204.441,185.95 205.107,184.284 205.5,182.5C 210.833,172.5 218.5,164.833 228.5,159.5C 230.954,158.773 233.287,157.773 235.5,156.5C 248.833,152.5 262.167,152.5 275.5,156.5 Z M 82.5,304.5 C 106.648,302.481 117.481,313.481 115,337.5C 109.444,352.537 98.6108,358.704 82.5,356C 67.4628,350.444 61.2961,339.611 64,323.5C 65.5139,318.971 67.6806,314.805 70.5,311C 74.4339,308.536 78.4339,306.369 82.5,304.5 Z M 414.5,304.5 C 438.648,302.481 449.481,313.481 447,337.5C 441.444,352.537 430.611,358.704 414.5,356C 399.463,350.444 393.296,339.611 396,323.5C 397.514,318.971 399.681,314.805 402.5,311C 406.434,308.536 410.434,306.369 414.5,304.5 Z M 109.5,427.5 C 112.378,429.105 115.378,430.439 118.5,431.5C 127.55,436.884 134.55,444.217 139.5,453.5C 139.893,455.284 140.559,456.95 141.5,458.5C 144.098,464.895 145.431,471.562 145.5,478.5C 108.167,478.5 70.8333,478.5 33.5,478.5C 33.5687,471.562 34.902,464.895 37.5,458.5C 38.4408,456.95 39.1075,455.284 39.5,453.5C 44.8333,443.5 52.5,435.833 62.5,430.5C 64.9538,429.773 67.2872,428.773 69.5,427.5C 82.8333,423.5 96.1667,423.5 109.5,427.5 Z M 441.5,427.5 C 444.378,429.105 447.378,430.439 450.5,431.5C 459.55,436.884 466.55,444.217 471.5,453.5C 471.893,455.284 472.559,456.95 473.5,458.5C 476.098,464.895 477.431,471.562 477.5,478.5C 440.167,478.5 402.833,478.5 365.5,478.5C 365.569,471.562 366.902,464.895 369.5,458.5C 370.441,456.95 371.107,455.284 371.5,453.5C 376.833,443.5 384.5,435.833 394.5,430.5C 396.954,429.773 399.287,428.773 401.5,427.5C 414.833,423.5 428.167,423.5 441.5,427.5 Z"/></g>
<g><path style="opacity:0.559" fill="#ceb159" d="M 279.5,1.5 C 283.655,2.74169 287.322,4.74169 290.5,7.5C 285.872,6.047 282.206,4.047 279.5,1.5 Z"/></g>
<g><path style="opacity:0.559" fill="#ceb159" d="M 233.5,0.5 C 229.653,3.59256 225.32,5.9259 220.5,7.5C 224.347,4.40744 228.68,2.0741 233.5,0.5 Z"/></g>
<g><path style="opacity:0.559" fill="#ceb159" d="M 203.5,24.5 C 201.926,29.3195 199.593,33.6528 196.5,37.5C 198.074,32.6805 200.407,28.3472 203.5,24.5 Z"/></g>
<g><path style="opacity:0.559" fill="#ceb159" d="M 307.5,24.5 C 310.593,28.3472 312.926,32.6805 314.5,37.5C 311.407,33.6528 309.074,29.3195 307.5,24.5 Z"/></g>
<g><path style="opacity:0.559" fill="#ceb159" d="M 203.5,94.5 C 200.742,91.322 198.742,87.6553 197.5,83.5C 200.047,86.2056 202.047,89.8723 203.5,94.5 Z"/></g>
<g><path style="opacity:0.559" fill="#ceb159" d="M 313.5,83.5 C 312.258,87.6553 310.258,91.322 307.5,94.5C 308.953,89.8723 310.953,86.2056 313.5,83.5 Z"/></g>
<g><path style="opacity:0.559" fill="#ceb159" d="M 220.5,111.5 C 224.598,113.048 228.598,114.881 232.5,117C 233.738,117.69 233.738,118.19 232.5,118.5C 228.136,116.656 224.136,114.323 220.5,111.5 Z"/></g>
<g><path style="opacity:0.559" fill="#ceb159" d="M 290.5,111.5 C 287.322,114.258 283.655,116.258 279.5,117.5C 282.206,114.953 285.872,112.953 290.5,111.5 Z"/></g>
<g><path style="opacity:0.559" fill="#ceb159" d="M 292.5,124.5 C 295.992,125.41 298.992,127.076 301.5,129.5C 297.529,128.382 294.529,126.716 292.5,124.5 Z"/></g>
<g><path style="opacity:0.559" fill="#ceb159" d="M 220.5,123.5 C 217.322,126.258 213.655,128.258 209.5,129.5C 212.678,126.742 216.345,124.742 220.5,123.5 Z"/></g>
<g><path style="opacity:0.559" fill="#ceb159" d="M 235.5,156.5 C 233.287,157.773 230.954,158.773 228.5,159.5C 229.581,157.868 231.581,156.535 234.5,155.5C 235.107,155.624 235.44,155.957 235.5,156.5 Z"/></g>
<g><path style="opacity:0.559" fill="#ceb159" d="M 275.5,156.5 C 275.56,155.957 275.893,155.624 276.5,155.5C 279.568,156.691 282.235,158.358 284.5,160.5C 281.378,159.439 278.378,158.105 275.5,156.5 Z"/></g>
<g><path style="opacity:0.559" fill="#ceb159" d="M 174.5,165.5 C 173.921,168.331 172.588,170.664 170.5,172.5C 171.079,169.669 172.412,167.336 174.5,165.5 Z"/></g>
<g><path style="opacity:0.559" fill="#ceb159" d="M 336.5,165.5 C 338.588,167.336 339.921,169.669 340.5,172.5C 338.412,170.664 337.079,168.331 336.5,165.5 Z"/></g>
<g><path style="opacity:0.559" fill="#ceb159" d="M 205.5,182.5 C 205.107,184.284 204.441,185.95 203.5,187.5C 202.957,187.44 202.624,187.107 202.5,186.5C 203.194,184.188 204.194,182.854 205.5,182.5 Z"/></g>
<g><path style="opacity:0.559" fill="#ceb159" d="M 307.5,187.5 C 306.559,185.95 305.893,184.284 305.5,182.5C 306.806,182.854 307.806,184.188 308.5,186.5C 308.376,187.107 308.043,187.44 307.5,187.5 Z"/></g>
<g><path style="opacity:0.682" fill="#ceb159" d="M 199.5,207.5 C 236.833,207.5 274.167,207.5 311.5,207.5C 293.179,208.833 274.512,209.5 255.5,209.5C 236.488,209.5 217.821,208.833 199.5,207.5 Z"/></g>
<g><path style="opacity:0.559" fill="#ceb159" d="M 113.5,272.5 C 117.655,273.742 121.322,275.742 124.5,278.5C 119.872,277.047 116.206,275.047 113.5,272.5 Z"/></g>
<g><path style="opacity:0.559" fill="#ceb159" d="M 445.5,272.5 C 449.655,273.742 453.322,275.742 456.5,278.5C 451.872,277.047 448.206,275.047 445.5,272.5 Z"/></g>
<g><path style="opacity:0.559" fill="#ceb159" d="M 67.5,271.5 C 63.6528,274.593 59.3195,276.926 54.5,278.5C 58.3472,275.407 62.6805,273.074 67.5,271.5 Z"/></g>
<g><path style="opacity:0.559" fill="#ceb159" d="M 399.5,271.5 C 395.653,274.593 391.32,276.926 386.5,278.5C 390.347,275.407 394.68,273.074 399.5,271.5 Z"/></g>
<g><path style="opacity:0.559" fill="#ceb159" d="M 37.5,295.5 C 35.9259,300.32 33.5926,304.653 30.5,308.5C 32.0741,303.68 34.4074,299.347 37.5,295.5 Z"/></g>
<g><path style="opacity:0.559" fill="#ceb159" d="M 141.5,295.5 C 144.593,299.347 146.926,303.68 148.5,308.5C 145.407,304.653 143.074,300.32 141.5,295.5 Z"/></g>
<g><path style="opacity:0.559" fill="#ceb159" d="M 369.5,295.5 C 367.926,300.32 365.593,304.653 362.5,308.5C 364.074,303.68 366.407,299.347 369.5,295.5 Z"/></g>
<g><path style="opacity:0.559" fill="#ceb159" d="M 473.5,295.5 C 476.593,299.347 478.926,303.68 480.5,308.5C 477.407,304.653 475.074,300.32 473.5,295.5 Z"/></g>
<g><path style="opacity:0.559" fill="#ceb159" d="M 37.5,365.5 C 34.7417,362.322 32.7417,358.655 31.5,354.5C 34.047,357.206 36.047,360.872 37.5,365.5 Z"/></g>
<g><path style="opacity:0.559" fill="#ceb159" d="M 147.5,354.5 C 146.258,358.655 144.258,362.322 141.5,365.5C 142.953,360.872 144.953,357.206 147.5,354.5 Z"/></g>
<g><path style="opacity:0.559" fill="#ceb159" d="M 369.5,365.5 C 366.742,362.322 364.742,358.655 363.5,354.5C 366.047,357.206 368.047,360.872 369.5,365.5 Z"/></g>
<g><path style="opacity:0.559" fill="#ceb159" d="M 479.5,354.5 C 478.258,358.655 476.258,362.322 473.5,365.5C 474.953,360.872 476.953,357.206 479.5,354.5 Z"/></g>
<g><path style="opacity:0.559" fill="#ceb159" d="M 54.5,382.5 C 58.5977,384.048 62.5977,385.881 66.5,388C 67.7383,388.69 67.7383,389.19 66.5,389.5C 62.1362,387.656 58.1362,385.323 54.5,382.5 Z"/></g>
<g><path style="opacity:0.559" fill="#ceb159" d="M 124.5,382.5 C 121.322,385.258 117.655,387.258 113.5,388.5C 116.206,385.953 119.872,383.953 124.5,382.5 Z"/></g>
<g><path style="opacity:0.559" fill="#ceb159" d="M 386.5,382.5 C 390.598,384.048 394.598,385.881 398.5,388C 399.738,388.69 399.738,389.19 398.5,389.5C 394.136,387.656 390.136,385.323 386.5,382.5 Z"/></g>
<g><path style="opacity:0.559" fill="#ceb159" d="M 456.5,382.5 C 453.322,385.258 449.655,387.258 445.5,388.5C 448.206,385.953 451.872,383.953 456.5,382.5 Z"/></g>
<g><path style="opacity:0.559" fill="#ceb159" d="M 126.5,395.5 C 129.833,396.833 133.167,398.167 136.5,399.5C 135.749,400.573 134.749,400.74 133.5,400C 130.263,398.794 127.93,397.294 126.5,395.5 Z"/></g>
<g><path style="opacity:0.559" fill="#ceb159" d="M 458.5,395.5 C 461.992,396.41 464.992,398.076 467.5,400.5C 463.529,399.382 460.529,397.716 458.5,395.5 Z"/></g>
<g><path style="opacity:0.559" fill="#ceb159" d="M 54.5,394.5 C 51.322,397.258 47.6553,399.258 43.5,400.5C 46.678,397.742 50.3447,395.742 54.5,394.5 Z"/></g>
<g><path style="opacity:0.559" fill="#ceb159" d="M 386.5,394.5 C 383.898,396.81 380.898,398.643 377.5,400C 376.251,400.74 375.251,400.573 374.5,399.5C 378.5,397.833 382.5,396.167 386.5,394.5 Z"/></g>
<g><path style="opacity:0.559" fill="#ceb159" d="M 69.5,427.5 C 67.2872,428.773 64.9538,429.773 62.5,430.5C 63.581,428.868 65.581,427.535 68.5,426.5C 69.1067,426.624 69.44,426.957 69.5,427.5 Z"/></g>
<g><path style="opacity:0.559" fill="#ceb159" d="M 109.5,427.5 C 109.56,426.957 109.893,426.624 110.5,426.5C 113.568,427.691 116.235,429.358 118.5,431.5C 115.378,430.439 112.378,429.105 109.5,427.5 Z"/></g>
<g><path style="opacity:0.559" fill="#ceb159" d="M 401.5,427.5 C 399.287,428.773 396.954,429.773 394.5,430.5C 395.581,428.868 397.581,427.535 400.5,426.5C 401.107,426.624 401.44,426.957 401.5,427.5 Z"/></g>
<g><path style="opacity:0.559" fill="#ceb159" d="M 441.5,427.5 C 441.56,426.957 441.893,426.624 442.5,426.5C 445.568,427.691 448.235,429.358 450.5,431.5C 447.378,430.439 444.378,429.105 441.5,427.5 Z"/></g>
<g><path style="opacity:0.559" fill="#ceb159" d="M 169.5,434.5 C 171.924,437.008 173.59,440.008 174.5,443.5C 172.076,440.992 170.41,437.992 169.5,434.5 Z"/></g>
<g><path style="opacity:0.559" fill="#ceb159" d="M 341.5,434.5 C 340.59,437.992 338.924,440.992 336.5,443.5C 337.41,440.008 339.076,437.008 341.5,434.5 Z"/></g>
<g><path style="opacity:0.559" fill="#ceb159" d="M 8.5,436.5 C 7.9213,439.331 6.58797,441.664 4.5,443.5C 5.0787,440.669 6.41203,438.336 8.5,436.5 Z"/></g>
<g><path style="opacity:0.559" fill="#ceb159" d="M 502.5,436.5 C 504.588,438.336 505.921,440.669 506.5,443.5C 504.412,441.664 503.079,439.331 502.5,436.5 Z"/></g>
<g><path style="opacity:0.559" fill="#ceb159" d="M 39.5,453.5 C 39.1075,455.284 38.4408,456.95 37.5,458.5C 36.9569,458.44 36.6236,458.107 36.5,457.5C 37.1935,455.188 38.1935,453.854 39.5,453.5 Z"/></g>
<g><path style="opacity:0.559" fill="#ceb159" d="M 141.5,458.5 C 140.559,456.95 139.893,455.284 139.5,453.5C 140.806,453.854 141.806,455.188 142.5,457.5C 142.376,458.107 142.043,458.44 141.5,458.5 Z"/></g>
<g><path style="opacity:0.559" fill="#ceb159" d="M 371.5,453.5 C 371.107,455.284 370.441,456.95 369.5,458.5C 368.957,458.44 368.624,458.107 368.5,457.5C 369.194,455.188 370.194,453.854 371.5,453.5 Z"/></g>
<g><path style="opacity:0.559" fill="#ceb159" d="M 473.5,458.5 C 472.559,456.95 471.893,455.284 471.5,453.5C 472.806,453.854 473.806,455.188 474.5,457.5C 474.376,458.107 474.043,458.44 473.5,458.5 Z"/></g>
<g><path style="opacity:0.682" fill="#ceb159" d="M 33.5,478.5 C 70.8333,478.5 108.167,478.5 145.5,478.5C 127.179,479.833 108.512,480.5 89.5,480.5C 70.4878,480.5 51.8212,479.833 33.5,478.5 Z"/></g>
<g><path style="opacity:0.682" fill="#ceb159" d="M 365.5,478.5 C 402.833,478.5 440.167,478.5 477.5,478.5C 459.179,479.833 440.512,480.5 421.5,480.5C 402.488,480.5 383.821,479.833 365.5,478.5 Z"/></g>
</svg>
