<?xml version="1.0" encoding="UTF-8"?>
<!DOCTYPE svg PUBLIC "-//W3C//DTD SVG 1.1//EN" "http://www.w3.org/Graphics/SVG/1.1/DTD/svg11.dtd">
<svg xmlns="http://www.w3.org/2000/svg" version="1.1" width="500px" height="500px" style="shape-rendering:geometricPrecision; text-rendering:geometricPrecision; image-rendering:optimizeQuality; fill-rule:evenodd; clip-rule:evenodd" xmlns:xlink="http://www.w3.org/1999/xlink">
<g><path style="opacity:0.894" fill="#ceb05a" d="M 357.5,55.5 C 390.527,55.7039 415.36,70.0373 432,98.5C 449.079,140.852 438.579,174.686 400.5,200C 387.749,207.439 374.083,210.606 359.5,209.5C 353.344,237.275 346.678,264.942 339.5,292.5C 339.608,293.442 339.941,294.275 340.5,295C 369.594,309.77 385.594,333.436 388.5,366C 384.941,402.559 365.941,427.226 331.5,440C 305.351,446.639 282.018,441.305 261.5,424C 236.302,401.091 228.468,373.257 238,340.5C 254.01,304.752 281.51,287.752 320.5,289.5C 326.85,262.1 333.516,234.767 340.5,207.5C 332.103,203.462 324.103,198.628 316.5,193C 309.587,186.592 303.254,179.758 297.5,172.5C 267.252,184.752 236.918,196.919 206.5,209C 220.749,252.205 208.415,285.872 169.5,310C 131.886,325.545 100.053,317.712 74,286.5C 53.3348,256.149 53.3348,225.816 74,195.5C 104.107,160.668 138.941,154.835 178.5,178C 184.302,182.8 189.802,187.967 195,193.5C 225.996,180.553 257.162,167.887 288.5,155.5C 281.178,122.96 290.178,95.7932 315.5,74C 327.731,63.7158 341.731,57.5491 357.5,55.5 Z M 358.5,75.5 C 401.137,76.3024 421.637,97.9691 420,140.5C 418.66,152.169 414.327,162.503 407,171.5C 407.115,166.407 405.782,161.74 403,157.5C 397.61,150.061 390.444,145.561 381.5,144C 402.818,126.761 403.485,108.761 383.5,90C 372.252,82.1729 360.586,81.5062 348.5,88C 335.249,96.6682 329.749,108.835 332,124.5C 334.877,132.388 339.711,138.888 346.5,144C 342.783,145.18 339.116,146.513 335.5,148C 331.667,151.833 327.833,155.667 324,159.5C 322.587,163.739 321.587,168.072 321,172.5C 306.036,153.429 302.703,132.429 311,109.5C 317.264,94.5718 328.098,84.4052 343.5,79C 348.596,77.6404 353.596,76.4737 358.5,75.5 Z M 359.5,103.5 C 374.455,101.403 380.288,107.736 377,122.5C 374.482,127.522 370.315,130.188 364.5,130.5C 358.496,130.47 354.329,127.804 352,122.5C 350.777,116.621 351.611,111.121 354.5,106C 356.315,105.243 357.981,104.41 359.5,103.5 Z M 344.5,164.5 C 358.216,164.185 371.883,164.518 385.5,165.5C 386.664,172.142 386.831,178.808 386,185.5C 378.961,188.309 371.628,189.975 364,190.5C 356.356,189.861 348.856,188.528 341.5,186.5C 341.334,179.825 341.5,173.158 342,166.5C 342.995,165.934 343.828,165.267 344.5,164.5 Z M 134.5,183.5 C 174.347,186.848 193.514,208.515 192,248.5C 190.677,260.141 186.343,270.474 179,279.5C 178.128,269.262 173.295,261.429 164.5,256C 160.768,254.031 156.768,253.031 152.5,253C 170.458,241.289 174.291,226.122 164,207.5C 160.5,204 157,200.5 153.5,197C 140.711,189.163 128.378,189.829 116.5,199C 97.342,218.072 98.342,236.072 119.5,253C 115.281,253.173 111.281,254.173 107.5,256C 104,259.5 100.5,263 97,266.5C 94.9241,271.273 93.5907,276.273 93,281.5C 74.8287,256.561 73.8287,230.894 90,204.5C 101.98,191.33 116.814,184.33 134.5,183.5 Z M 130.5,211.5 C 144.853,209.355 151.02,215.355 149,229.5C 148.484,232.034 147.317,234.2 145.5,236C 140.282,237.563 134.949,237.896 129.5,237C 121.817,230.731 120.651,223.231 126,214.5C 127.652,213.601 129.152,212.601 130.5,211.5 Z M 114.5,273.5 C 128.837,273.333 143.171,273.5 157.5,274C 158.643,280.418 158.81,286.918 158,293.5C 154.927,294.858 151.76,296.025 148.5,297C 136.625,298.263 124.958,297.43 113.5,294.5C 113.24,287.443 113.573,280.443 114.5,273.5 Z M 305.5,308.5 C 349.633,309.799 370.133,332.466 367,376.5C 365.109,386.533 361.109,395.533 355,403.5C 352.23,389.065 343.73,380.231 329.5,377C 351.138,357.548 350.472,338.881 327.5,321C 322.579,318.081 317.246,316.248 311.5,315.5C 297.148,318.341 286.648,326.341 280,339.5C 276.035,355.403 280.868,367.903 294.5,377C 290.361,377.912 286.361,379.246 282.5,381C 279,384.5 275.5,388 272,391.5C 270.164,396.011 268.83,400.677 268,405.5C 249.477,380.343 248.81,354.676 266,328.5C 276.98,317.351 290.147,310.684 305.5,308.5 Z M 305.5,336.5 C 323.019,334.567 328.852,341.9 323,358.5C 320.131,361.886 316.464,363.219 312,362.5C 305.337,363.346 301.004,360.68 299,354.5C 298.023,349.266 298.69,344.266 301,339.5C 302.652,338.601 304.152,337.601 305.5,336.5 Z M 293.5,397.5 C 306.863,397.242 320.196,397.575 333.5,398.5C 334.047,402.299 334.381,406.132 334.5,410C 334.442,413.276 333.776,416.276 332.5,419C 318.219,423.498 303.886,423.665 289.5,419.5C 289.5,412.5 289.5,405.5 289.5,398.5C 291.099,398.768 292.432,398.434 293.5,397.5 Z"/></g>
<g><path style="opacity:0.988" fill="#cdae5b" d="M 115.5,246.5 C 116.497,245.287 117.497,245.454 118.5,247C 117.423,247.47 116.423,247.303 115.5,246.5 Z"/></g>
<g><path style="opacity:0.988" fill="#ccae5b" d="M 284.5,399.5 C 285.182,406.901 285.848,414.401 286.5,422C 286.167,422.167 285.833,422.333 285.5,422.5C 284.503,414.862 284.169,407.196 284.5,399.5 Z"/></g>
</svg>
