<?xml version="1.0" encoding="UTF-8"?>
<!DOCTYPE svg PUBLIC "-//W3C//DTD SVG 1.1//EN" "http://www.w3.org/Graphics/SVG/1.1/DTD/svg11.dtd">
<svg xmlns="http://www.w3.org/2000/svg" version="1.1" width="733px" height="340px" style="shape-rendering:geometricPrecision; text-rendering:geometricPrecision; image-rendering:optimizeQuality; fill-rule:evenodd; clip-rule:evenodd" xmlns:xlink="http://www.w3.org/1999/xlink">
<g><path style="opacity:0.435" fill="#9b9385" d="M 166.5,54.5 C 165.406,53.4183 164.073,52.7517 162.5,52.5C 158.547,53.3619 154.547,53.6952 150.5,53.5C 155.311,52.2444 160.311,51.7444 165.5,52C 166.252,52.6708 166.586,53.5041 166.5,54.5 Z"/></g>
<g><path style="opacity:1" fill="#ccaf5b" d="M 166.5,54.5 C 169.497,58.4914 172.497,62.4914 175.5,66.5C 176.08,68.7488 177.413,70.4154 179.5,71.5C 182.832,75.5166 185.832,79.8499 188.5,84.5C 181.829,95.6796 174.162,106.18 165.5,116C 134.491,122.176 115.491,140.676 108.5,171.5C 107.635,172.583 106.635,172.749 105.5,172C 95.7151,165.876 86.2151,159.376 77,152.5C 66.9013,158.929 57.068,165.762 47.5,173C 46.552,173.483 45.552,173.649 44.5,173.5C 44.926,165.092 45.926,156.759 47.5,148.5C 56.1391,115.529 74.8058,89.8627 103.5,71.5C 105.674,71.2503 107.341,70.2503 108.5,68.5C 112.151,67.3411 115.485,65.6744 118.5,63.5C 128.487,58.3306 139.154,54.9973 150.5,53.5C 154.547,53.6952 158.547,53.3619 162.5,52.5C 164.073,52.7517 165.406,53.4183 166.5,54.5 Z"/></g>
<g><path style="opacity:0.478" fill="#90877e" d="M 358.5,52.5 C 353.507,52.9157 348.507,53.2491 343.5,53.5C 348.448,51.7541 353.448,51.4207 358.5,52.5 Z"/></g>
<g><path style="opacity:1" fill="#cbaf5b" d="M 234.5,67.5 C 236.336,69.588 238.669,70.9213 241.5,71.5C 248.041,75.0338 254.041,79.3672 259.5,84.5C 261.557,88.067 264.223,91.2337 267.5,94C 266.748,94.6708 266.414,95.5041 266.5,96.5C 265.89,97.391 265.557,98.391 265.5,99.5C 268.812,96.8544 271.812,93.8544 274.5,90.5C 276.167,89.5 277.5,88.1667 278.5,86.5C 282.917,81.7469 287.917,77.7469 293.5,74.5C 295.853,73.6597 297.853,72.3264 299.5,70.5C 300.514,69.3263 301.847,68.6596 303.5,68.5C 305.819,68.0075 307.819,67.0075 309.5,65.5C 317.666,61.0921 326.333,57.7587 335.5,55.5C 338.428,55.4349 341.095,54.7682 343.5,53.5C 348.507,53.2491 353.507,52.9157 358.5,52.5C 356.772,58.293 353.772,63.293 349.5,67.5C 347.1,69.2964 345.433,71.6298 344.5,74.5C 342.669,78.154 340.336,81.4873 337.5,84.5C 343.14,92.6402 348.973,100.64 355,108.5C 357.099,110.974 357.599,113.641 356.5,116.5C 325.971,123.195 307.805,141.861 302,172.5C 297.376,176.549 292.543,180.215 287.5,183.5C 284.865,184.473 282.865,186.14 281.5,188.5C 277.631,190.689 273.797,193.022 270,195.5C 265.869,193.524 262.036,191.191 258.5,188.5C 256.2,186.016 253.533,184.016 250.5,182.5C 246.271,180.443 242.437,177.777 239,174.5C 238.522,169.132 238.855,163.799 240,158.5C 241.286,153.488 242.452,148.488 243.5,143.5C 241.431,148.042 239.764,152.708 238.5,157.5C 237.698,158.952 237.198,160.618 237,162.5C 235.918,160.382 234.751,158.382 233.5,156.5C 226.658,141.991 216.325,130.658 202.5,122.5C 197.171,118.723 191.171,116.723 184.5,116.5C 182.654,116.778 181.32,116.111 180.5,114.5C 182.943,110.589 185.61,106.922 188.5,103.5C 191.471,101.557 193.471,98.8908 194.5,95.5C 196.457,91.7538 198.79,88.2538 201.5,85C 195.128,75.7626 188.628,66.5959 182,57.5C 180.495,55.7017 180.328,53.8684 181.5,52C 200.367,53.2352 218.033,58.4018 234.5,67.5 Z M 265.5,99.5 C 264.431,101.969 263.098,104.302 261.5,106.5C 260.833,106.833 260.167,107.167 259.5,107.5C 261.016,104.467 263.016,101.8 265.5,99.5 Z M 259.5,107.5 C 259.573,109.027 258.906,110.027 257.5,110.5C 257.427,108.973 258.094,107.973 259.5,107.5 Z M 257.5,110.5 C 256.5,113.167 255.5,115.833 254.5,118.5C 253.833,118.833 253.167,119.167 252.5,119.5C 253.41,116.008 255.076,113.008 257.5,110.5 Z M 250.5,124.5 C 250.267,127.542 249.267,130.208 247.5,132.5C 247.733,129.458 248.733,126.792 250.5,124.5 Z M 247.5,132.5 C 246.541,136.383 245.208,140.05 243.5,143.5C 243.667,139.327 245,135.66 247.5,132.5 Z"/></g>
<g><path style="opacity:1" fill="#ccaf5b" d="M 612.5,63.5 C 616.182,66.0078 620.182,68.0078 624.5,69.5C 654.718,87.4014 674.385,113.401 683.5,147.5C 684.713,154.654 686.046,161.654 687.5,168.5C 688.399,169.994 688.065,171.494 686.5,173C 676.85,180.492 666.85,187.492 656.5,194C 655.167,194.667 653.833,194.667 652.5,194C 642.465,188.133 633.132,181.299 624.5,173.5C 620.38,154.772 611.046,139.439 596.5,127.5C 595.341,125.75 593.674,124.75 591.5,124.5C 590.341,122.75 588.674,121.75 586.5,121.5C 582.353,120.34 578.353,119.007 574.5,117.5C 572.485,116.076 570.152,115.41 567.5,115.5C 566.167,114.833 566.167,114.167 567.5,113.5C 569.326,111.853 570.66,109.853 571.5,107.5C 575.169,101.507 579.336,95.8407 584,90.5C 587.333,86.5 587.333,82.5 584,78.5C 577.641,70.3075 571.474,61.9742 565.5,53.5C 566.242,52.7132 567.075,52.0465 568,51.5C 583.524,53.2546 598.358,57.2546 612.5,63.5 Z"/></g>
<g><path style="opacity:1" fill="#ccaf5b" d="M 423.5,65.5 C 428.994,69.0821 434.661,72.4155 440.5,75.5C 444.482,78.1518 448.149,81.1518 451.5,84.5C 453.181,87.2423 455.181,88.909 457.5,89.5C 460.092,91.0361 461.092,93.3695 460.5,96.5C 459.662,96.8417 459.328,97.5084 459.5,98.5C 450.21,108.74 443.21,120.406 438.5,133.5C 436.928,136.215 435.928,139.215 435.5,142.5C 433.837,144.438 433.171,146.772 433.5,149.5C 432.262,151.214 431.595,153.214 431.5,155.5C 431.784,157.415 431.451,159.081 430.5,160.5C 429.5,161.833 428.5,161.833 427.5,160.5C 420.661,141.66 407.994,128.326 389.5,120.5C 387.316,118.415 384.649,117.415 381.5,117.5C 378.312,117.382 375.312,116.549 372.5,115C 369.617,111.624 366.951,108.124 364.5,104.5C 362.272,100.388 359.772,96.388 357,92.5C 356.601,92.7284 356.435,93.0618 356.5,93.5C 354.491,90.7908 352.825,87.7908 351.5,84.5C 352.576,82.0139 353.909,79.6805 355.5,77.5C 358.323,76.0077 359.99,73.6743 360.5,70.5C 364.592,64.5625 368.925,58.7292 373.5,53C 391.222,53.1896 407.888,57.3563 423.5,65.5 Z"/></g>
<g><path style="opacity:1" fill="#ccaf5b" d="M 544.5,117.5 C 541.084,117.528 538.084,118.528 535.5,120.5C 518.528,127.472 506.528,139.472 499.5,156.5C 495.934,160.683 494.267,165.683 494.5,171.5C 494.217,172.289 493.717,172.956 493,173.5C 482.656,166.485 472.323,159.485 462,152.5C 452.613,159.397 443.113,166.064 433.5,172.5C 431.824,171.817 431.157,170.483 431.5,168.5C 434.788,142.613 444.121,119.28 459.5,98.5C 460.338,98.1583 460.672,97.4916 460.5,96.5C 461.5,95.8333 462.5,95.1667 463.5,94.5C 465.939,92.9732 467.939,90.9732 469.5,88.5C 469.414,87.5041 469.748,86.6708 470.5,86C 475.39,83.0458 479.723,79.3792 483.5,75C 485.078,73.9055 486.745,73.0722 488.5,72.5C 491.511,71.3307 494.178,69.664 496.5,67.5C 513.534,58.106 531.867,53.2726 551.5,53C 560.09,62.862 567.423,73.5287 573.5,85C 567.388,96.1262 560.055,106.46 551.5,116C 549.26,116.977 546.927,117.477 544.5,117.5 Z"/></g>
<g><path style="opacity:0.149" fill="#978f87" d="M 343.5,53.5 C 341.095,54.7682 338.428,55.4349 335.5,55.5C 337.838,53.9605 340.505,53.2938 343.5,53.5 Z"/></g>
<g><path style="opacity:0.071" fill="#aeadab" d="M 309.5,65.5 C 307.819,67.0075 305.819,68.0075 303.5,68.5C 304.911,66.461 306.911,65.461 309.5,65.5 Z"/></g>
<g><path style="opacity:0.055" fill="#bcbab8" d="M 118.5,63.5 C 115.485,65.6744 112.151,67.3411 108.5,68.5C 111.247,65.7933 114.58,64.1266 118.5,63.5 Z"/></g>
<g><path style="opacity:0.078" fill="#b4b3af" d="M 612.5,63.5 C 617.086,64.4598 621.086,66.4598 624.5,69.5C 620.182,68.0078 616.182,66.0078 612.5,63.5 Z"/></g>
<g><path style="opacity:0.388" fill="#8e8a82" d="M 175.5,66.5 C 177.587,67.5846 178.92,69.2512 179.5,71.5C 177.413,70.4154 176.08,68.7488 175.5,66.5 Z"/></g>
<g><path style="opacity:0.137" fill="#94908c" d="M 496.5,67.5 C 494.178,69.664 491.511,71.3307 488.5,72.5C 490.484,69.8361 493.151,68.1695 496.5,67.5 Z"/></g>
<g><path style="opacity:0.145" fill="#b3aea8" d="M 108.5,68.5 C 107.341,70.2503 105.674,71.2503 103.5,71.5C 104.659,69.7497 106.326,68.7497 108.5,68.5 Z"/></g>
<g><path style="opacity:0.012" fill="#9a9693" d="M 234.5,67.5 C 237.331,68.0787 239.664,69.412 241.5,71.5C 238.669,70.9213 236.336,69.588 234.5,67.5 Z"/></g>
<g><path style="opacity:0.137" fill="#939188" d="M 349.5,67.5 C 348.567,70.3702 346.9,72.7036 344.5,74.5C 345.433,71.6298 347.1,69.2964 349.5,67.5 Z"/></g>
<g><path style="opacity:0.082" fill="#a9a79e" d="M 423.5,65.5 C 429.954,67.5579 435.621,70.8913 440.5,75.5C 434.661,72.4155 428.994,69.0821 423.5,65.5 Z"/></g>
<g><path style="opacity:0.11" fill="#a39e95" d="M 299.5,70.5 C 297.853,72.3264 295.853,73.6597 293.5,74.5C 294.802,72.1782 296.802,70.8449 299.5,70.5 Z"/></g>
<g><path style="opacity:0.263" fill="#a59e94" d="M 360.5,70.5 C 359.99,73.6743 358.323,76.0077 355.5,77.5C 356.786,74.883 358.453,72.5496 360.5,70.5 Z"/></g>
<g><path style="opacity:0.153" fill="#a9a6a4" d="M 259.5,84.5 C 262.464,86.9619 265.297,89.6286 268,92.5C 268.773,94.3524 268.273,95.6857 266.5,96.5C 266.414,95.5041 266.748,94.6708 267.5,94C 264.223,91.2337 261.557,88.067 259.5,84.5 Z"/></g>
<g><path style="opacity:0.016" fill="#b3b0ab" d="M 451.5,84.5 C 454.089,85.4194 456.089,87.086 457.5,89.5C 455.181,88.909 453.181,87.2423 451.5,84.5 Z"/></g>
<g><path style="opacity:0.082" fill="#b9b9b4" d="M 278.5,86.5 C 277.5,88.1667 276.167,89.5 274.5,90.5C 274.833,88.1667 276.167,86.8333 278.5,86.5 Z"/></g>
<g><path style="opacity:0.125" fill="#aba9a8" d="M 469.5,88.5 C 467.939,90.9732 465.939,92.9732 463.5,94.5C 464.614,91.5964 466.614,89.5964 469.5,88.5 Z"/></g>
<g><path style="opacity:0.039" fill="#a19c9a" d="M 364.5,104.5 C 361.102,101.373 358.435,97.7066 356.5,93.5C 356.435,93.0618 356.601,92.7284 357,92.5C 359.772,96.388 362.272,100.388 364.5,104.5 Z"/></g>
<g><path style="opacity:0.247" fill="#878679" d="M 194.5,95.5 C 193.471,98.8908 191.471,101.557 188.5,103.5C 190.016,100.467 192.016,97.8003 194.5,95.5 Z"/></g>
<g><path style="opacity:0.149" fill="#ada9a2" d="M 571.5,107.5 C 570.66,109.853 569.326,111.853 567.5,113.5C 567.845,110.802 569.178,108.802 571.5,107.5 Z"/></g>
<g><path style="opacity:0.098" fill="#96938c" d="M 261.5,106.5 C 259.668,110.836 257.335,114.836 254.5,118.5C 255.5,115.833 256.5,113.167 257.5,110.5C 258.906,110.027 259.573,109.027 259.5,107.5C 260.167,107.167 260.833,106.833 261.5,106.5 Z"/></g>
<g><path style="opacity:0.322" fill="#8c7c6e" d="M 567.5,115.5 C 570.152,115.41 572.485,116.076 574.5,117.5C 571.848,117.59 569.515,116.924 567.5,115.5 Z"/></g>
<g><path style="opacity:0.224" fill="#9d968a" d="M 544.5,117.5 C 541.785,119.072 538.785,120.072 535.5,120.5C 538.084,118.528 541.084,117.528 544.5,117.5 Z"/></g>
<g><path style="opacity:0.165" fill="#9e9588" d="M 184.5,116.5 C 191.171,116.723 197.171,118.723 202.5,122.5C 196.485,120.273 190.485,118.273 184.5,116.5 Z"/></g>
<g><path style="opacity:0.086" fill="#989388" d="M 381.5,117.5 C 384.649,117.415 387.316,118.415 389.5,120.5C 386.557,120.02 383.89,119.02 381.5,117.5 Z"/></g>
<g><path style="opacity:0.102" fill="#b4b0ad" d="M 586.5,121.5 C 588.674,121.75 590.341,122.75 591.5,124.5C 589.326,124.25 587.659,123.25 586.5,121.5 Z"/></g>
<g><path style="opacity:0.027" fill="#aeacac" d="M 591.5,124.5 C 593.674,124.75 595.341,125.75 596.5,127.5C 594.326,127.25 592.659,126.25 591.5,124.5 Z"/></g>
<g><path style="opacity:0.035" fill="#beb7b2" d="M 438.5,133.5 C 438.472,136.916 437.472,139.916 435.5,142.5C 435.928,139.215 436.928,136.215 438.5,133.5 Z"/></g>
<g><path style="opacity:0.169" fill="#aaa59c" d="M 435.5,142.5 C 435.279,145.067 434.612,147.401 433.5,149.5C 433.171,146.772 433.837,144.438 435.5,142.5 Z"/></g>
<g><path style="opacity:0.137" fill="#a19c96" d="M 433.5,149.5 C 433.741,151.898 433.074,153.898 431.5,155.5C 431.595,153.214 432.262,151.214 433.5,149.5 Z"/></g>
<g><path style="opacity:0.173" fill="#ada89f" d="M 683.5,147.5 C 686.231,154.117 687.564,161.117 687.5,168.5C 686.046,161.654 684.713,154.654 683.5,147.5 Z"/></g>
<g><path style="opacity:0.102" fill="#bbb4a9" d="M 47.5,148.5 C 45.926,156.759 44.926,165.092 44.5,173.5C 43.3592,170.36 43.1925,167.027 44,163.5C 44.3593,158.182 45.526,153.182 47.5,148.5 Z"/></g>
<g><path style="opacity:0.106" fill="#89898a" d="M 427.5,160.5 C 428.5,161.833 429.5,161.833 430.5,160.5C 429.754,164.31 428.754,164.31 427.5,160.5 Z"/></g>
<g><path style="opacity:0.024" fill="#939190" d="M 233.5,156.5 C 234.751,158.382 235.918,160.382 237,162.5C 237.198,160.618 237.698,158.952 238.5,157.5C 238.5,159.5 238.5,161.5 238.5,163.5C 237.178,163.67 236.011,163.337 235,162.5C 234.187,160.564 233.687,158.564 233.5,156.5 Z"/></g>
<g><path style="opacity:1" fill="#cbaf5b" d="M 492.5,194.5 C 491.539,196.265 491.205,198.265 491.5,200.5C 491.5,201.5 491.5,202.5 491.5,203.5C 489.185,211.414 486.851,219.414 484.5,227.5C 483.662,227.842 483.328,228.508 483.5,229.5C 482.069,230.78 481.402,232.447 481.5,234.5C 481.167,234.5 480.833,234.5 480.5,234.5C 477.17,240.492 473.837,246.492 470.5,252.5C 470.5,253.167 470.5,253.833 470.5,254.5C 464.738,261.436 458.738,268.27 452.5,275C 447.47,278.842 442.47,282.675 437.5,286.5C 434.296,287.383 431.629,289.05 429.5,291.5C 427.326,291.75 425.659,292.75 424.5,294.5C 415.705,299.325 406.372,302.991 396.5,305.5C 393.273,305.676 390.273,306.343 387.5,307.5C 385.393,308.468 383.059,308.802 380.5,308.5C 377.612,309.01 375.279,308.344 373.5,306.5C 379.864,295.957 386.864,285.79 394.5,276C 387.054,266.941 380.221,257.441 374,247.5C 373.333,246.5 373.333,245.5 374,244.5C 386.552,241.65 398.052,236.484 408.5,229C 420.031,217.443 427.531,203.61 431,187.5C 434.107,185.035 437.274,182.702 440.5,180.5C 444.732,178.6 448.399,175.933 451.5,172.5C 454.433,170.355 457.433,168.188 460.5,166C 461.833,165.333 463.167,165.333 464.5,166C 474.441,172.221 483.941,179.054 493,186.5C 493.801,189.367 493.634,192.034 492.5,194.5 Z"/></g>
<g><path style="opacity:1" fill="#ccaf5b" d="M 98.5,180.5 C 97.2617,180.81 97.2617,181.31 98.5,182C 100.078,183.094 101.745,183.928 103.5,184.5C 105.291,185.483 106.791,186.816 108,188.5C 110.147,196.777 112.981,204.777 116.5,212.5C 117.946,217.061 120.613,220.728 124.5,223.5C 127.242,225.743 129.908,228.243 132.5,231C 135.752,232.566 138.752,234.399 141.5,236.5C 142.911,238.539 144.911,239.539 147.5,239.5C 149.102,241.074 151.102,241.741 153.5,241.5C 157.935,242.098 161.935,243.598 165.5,246C 158.383,255.728 151.383,265.562 144.5,275.5C 150.93,285.37 157.596,295.036 164.5,304.5C 163.45,304.905 163.45,305.571 164.5,306.5C 161.572,307.484 158.572,307.817 155.5,307.5C 152.054,306.313 148.387,305.646 144.5,305.5C 120.483,300.997 100.15,289.997 83.5,272.5C 81.8193,269.758 79.8193,268.091 77.5,267.5C 61.9928,250.285 51.6595,230.285 46.5,207.5C 46.0955,201.453 45.4289,195.453 44.5,189.5C 44.4142,188.504 44.7476,187.671 45.5,187C 55.5834,179.209 66.0834,172.043 77,165.5C 84.6118,169.959 91.7784,174.959 98.5,180.5 Z"/></g>
<g><path style="opacity:0.286" fill="#9e9485" d="M 499.5,156.5 C 497.604,161.522 495.937,166.522 494.5,171.5C 494.267,165.683 495.934,160.683 499.5,156.5 Z"/></g>
<g><path style="opacity:0.078" fill="#727272" d="M 431.5,168.5 C 431.157,170.483 431.824,171.817 433.5,172.5C 432.791,173.404 431.791,173.737 430.5,173.5C 430.216,171.585 430.549,169.919 431.5,168.5 Z"/></g>
<g><path style="opacity:0.325" fill="#918f85" d="M 451.5,172.5 C 448.399,175.933 444.732,178.6 440.5,180.5C 443.601,177.067 447.268,174.4 451.5,172.5 Z"/></g>
<g><path style="opacity:0.094" fill="#888082" d="M 98.5,180.5 C 100.754,181.124 102.421,182.457 103.5,184.5C 101.745,183.928 100.078,183.094 98.5,182C 97.2617,181.31 97.2617,180.81 98.5,180.5 Z"/></g>
<g><path style="opacity:0.075" fill="#a8a3a0" d="M 250.5,182.5 C 253.533,184.016 256.2,186.016 258.5,188.5C 255.109,187.471 252.443,185.471 250.5,182.5 Z"/></g>
<g><path style="opacity:0.012" fill="#a49f97" d="M 287.5,183.5 C 286.109,185.89 284.109,187.557 281.5,188.5C 282.865,186.14 284.865,184.473 287.5,183.5 Z"/></g>
<g><path style="opacity:1" fill="#ccaf5b" d="M 299.5,195.5 C 298.566,196.568 298.232,197.901 298.5,199.5C 296.006,208.136 293.506,216.803 291,225.5C 287.213,233.404 283.713,241.404 280.5,249.5C 278.336,251.822 276.669,254.489 275.5,257.5C 274.662,257.842 274.328,258.508 274.5,259.5C 273.833,259.5 273.5,259.833 273.5,260.5C 272.833,260.5 272.5,260.833 272.5,261.5C 270.469,262.539 269.136,264.205 268.5,266.5C 264.5,268.5 261.5,271.5 259.5,275.5C 255.148,278.857 250.815,282.191 246.5,285.5C 243.63,286.433 241.296,288.1 239.5,290.5C 221.524,301.748 201.857,307.581 180.5,308C 171.656,298.16 163.989,287.493 157.5,276C 164.118,266.604 170.618,257.104 177,247.5C 180.449,244.169 184.616,242.502 189.5,242.5C 193.537,241.935 197.203,240.601 200.5,238.5C 202.674,238.25 204.341,237.25 205.5,235.5C 215.88,228.787 224.214,220.12 230.5,209.5C 232.625,206.912 233.958,203.912 234.5,200.5C 236.118,197.829 236.785,194.829 236.5,191.5C 236.572,187.464 238.239,186.63 241.5,189C 250.667,195.5 259.833,202 269,208.5C 278.5,201.667 288,194.833 297.5,188C 298.793,187.51 300.127,187.343 301.5,187.5C 301.717,190.421 301.051,193.087 299.5,195.5 Z"/></g>
<g><path style="opacity:1" fill="#ccaf5b" d="M 686.5,201.5 C 685.087,204.219 684.42,207.219 684.5,210.5C 675.919,246.065 655.919,273.065 624.5,291.5C 620.849,292.659 617.515,294.326 614.5,296.5C 599.284,304.9 582.951,308.567 565.5,307.5C 562.243,303.312 559.243,298.979 556.5,294.5C 555.471,291.109 553.471,288.443 550.5,286.5C 542.723,280.989 541.89,274.655 548,267.5C 549.617,265.237 551.45,263.237 553.5,261.5C 555.547,259.45 557.214,257.117 558.5,254.5C 560.482,251.19 562.815,248.19 565.5,245.5C 568.746,244.946 571.746,243.946 574.5,242.5C 587.017,238.312 598.017,231.645 607.5,222.5C 610.605,219.725 612.938,216.392 614.5,212.5C 618.417,204.918 621.25,196.918 623,188.5C 623.414,188.043 623.914,187.709 624.5,187.5C 635.053,193.721 645.053,200.721 654.5,208.5C 664.363,201.471 674.363,194.638 684.5,188C 685.793,187.51 687.127,187.343 688.5,187.5C 688.468,192.391 687.801,197.057 686.5,201.5 Z"/></g>
<g><path style="opacity:0.076" fill="#c1bcb2" d="M 44.5,189.5 C 45.4289,195.453 46.0955,201.453 46.5,207.5C 45.0695,202.381 44.0695,197.048 43.5,191.5C 43.5427,190.584 43.8761,189.917 44.5,189.5 Z"/></g>
<g><path style="opacity:0.055" fill="#b2a7a7" d="M 236.5,191.5 C 236.785,194.829 236.118,197.829 234.5,200.5C 234.676,197.273 235.343,194.273 236.5,191.5 Z"/></g>
<g><path style="opacity:1" fill="#ccaf5b" d="M 303.5,197.5 C 305.48,202.424 307.48,207.424 309.5,212.5C 309.75,214.674 310.75,216.341 312.5,217.5C 319.015,226.021 327.015,232.688 336.5,237.5C 337.911,239.539 339.911,240.539 342.5,240.5C 344.703,240.604 346.703,241.27 348.5,242.5C 350.438,244.163 352.772,244.829 355.5,244.5C 357.903,244.393 359.736,245.393 361,247.5C 363.356,251.34 365.856,255.006 368.5,258.5C 369.433,261.37 371.1,263.704 373.5,265.5C 374.458,265.953 375.292,266.619 376,267.5C 377.503,270.505 379.003,273.505 380.5,276.5C 379.535,278.789 378.202,280.789 376.5,282.5C 373.677,285.475 371.344,288.808 369.5,292.5C 367.413,293.585 366.08,295.251 365.5,297.5C 363.692,301.599 361.025,305.099 357.5,308C 337.99,307.5 319.657,302.5 302.5,293C 294.08,288.07 286.414,282.237 279.5,275.5C 277.167,272.5 274.5,269.833 271.5,267.5C 271.5,266.833 271.5,266.167 271.5,265.5C 272.906,265.027 273.573,264.027 273.5,262.5C 275.9,260.704 277.567,258.37 278.5,255.5C 279.167,253.5 279.833,251.5 280.5,249.5C 284.494,243.519 287.994,237.185 291,230.5C 292.057,225.899 293.557,221.566 295.5,217.5C 296.924,215.485 297.59,213.152 297.5,210.5C 297.263,209.209 297.596,208.209 298.5,207.5C 299.887,205.123 300.721,202.457 301,199.5C 301.417,198.244 302.25,197.577 303.5,197.5 Z"/></g>
<g><path style="opacity:1" fill="#cbaf5b" d="M 501.5,210.5 C 508.55,222.551 518.217,231.884 530.5,238.5C 532.792,240.267 535.458,241.267 538.5,241.5C 540.102,243.074 542.102,243.741 544.5,243.5C 549.123,242.408 550.956,244.075 550,248.5C 543.552,257.949 536.718,267.116 529.5,276C 537.496,285.156 544.496,294.99 550.5,305.5C 548.721,307.344 546.388,308.01 543.5,307.5C 527.92,305.971 513.254,301.637 499.5,294.5C 498.089,292.461 496.089,291.461 493.5,291.5C 491.77,290.974 490.436,289.974 489.5,288.5C 487.853,286.674 485.853,285.34 483.5,284.5C 479.537,281.871 475.871,278.871 472.5,275.5C 470,272.168 467,269.334 463.5,267C 464.305,265.887 464.972,264.721 465.5,263.5C 467.42,260.661 469.087,257.661 470.5,254.5C 473.712,252.438 475.712,249.438 476.5,245.5C 477.338,245.158 477.672,244.492 477.5,243.5C 478.338,243.158 478.672,242.492 478.5,241.5C 479.338,241.158 479.672,240.492 479.5,239.5C 480.338,239.158 480.672,238.492 480.5,237.5C 481.404,236.791 481.737,235.791 481.5,234.5C 482.931,233.22 483.598,231.553 483.5,229.5C 484.338,229.158 484.672,228.492 484.5,227.5C 484.833,227.5 485.167,227.5 485.5,227.5C 487.601,224.203 488.935,220.537 489.5,216.5C 490.924,214.485 491.59,212.152 491.5,209.5C 491.5,209.167 491.5,208.833 491.5,208.5C 492.72,204.96 493.886,201.294 495,197.5C 496.7,202.121 498.867,206.455 501.5,210.5 Z"/></g>
<g><path style="opacity:0.051" fill="#a9a6a0" d="M 492.5,194.5 C 492.343,195.873 492.51,197.207 493,198.5C 493.953,196.408 495.286,196.075 497,197.5C 498.521,201.865 500.021,206.198 501.5,210.5C 498.867,206.455 496.7,202.121 495,197.5C 493.886,201.294 492.72,204.96 491.5,208.5C 491.5,206.833 491.5,205.167 491.5,203.5C 492.833,202.5 492.833,201.5 491.5,200.5C 491.205,198.265 491.539,196.265 492.5,194.5 Z"/></g>
<g><path style="opacity:0.098" fill="#a09996" d="M 299.5,195.5 C 299.369,196.239 299.536,196.906 300,197.5C 301.554,195.073 302.721,195.073 303.5,197.5C 302.25,197.577 301.417,198.244 301,199.5C 300.721,202.457 299.887,205.123 298.5,207.5C 299.258,204.648 299.258,201.981 298.5,199.5C 298.232,197.901 298.566,196.568 299.5,195.5 Z"/></g>
<g><path style="opacity:0.071" fill="#9c9c9b" d="M 234.5,200.5 C 233.958,203.912 232.625,206.912 230.5,209.5C 231.042,206.088 232.375,203.088 234.5,200.5 Z"/></g>
<g><path style="opacity:0.027" fill="#aca9a2" d="M 686.5,201.5 C 686.58,204.781 685.913,207.781 684.5,210.5C 684.42,207.219 685.087,204.219 686.5,201.5 Z"/></g>
<g><path style="opacity:0.357" fill="#87897d" d="M 491.5,209.5 C 491.59,212.152 490.924,214.485 489.5,216.5C 489.41,213.848 490.076,211.515 491.5,209.5 Z"/></g>
<g><path style="opacity:0.086" fill="#afaaa7" d="M 116.5,212.5 C 119.409,215.981 122.075,219.648 124.5,223.5C 120.613,220.728 117.946,217.061 116.5,212.5 Z"/></g>
<g><path style="opacity:0.043" fill="#c0bfba" d="M 297.5,210.5 C 297.59,213.152 296.924,215.485 295.5,217.5C 295.41,214.848 296.076,212.515 297.5,210.5 Z"/></g>
<g><path style="opacity:0.067" fill="#b4b4b1" d="M 309.5,212.5 C 311.25,213.659 312.25,215.326 312.5,217.5C 310.75,216.341 309.75,214.674 309.5,212.5 Z"/></g>
<g><path style="opacity:0.082" fill="#afadaa" d="M 614.5,212.5 C 612.938,216.392 610.605,219.725 607.5,222.5C 609.062,218.608 611.395,215.275 614.5,212.5 Z"/></g>
<g><path style="opacity:0.059" fill="#9c9c96" d="M 489.5,216.5 C 488.935,220.537 487.601,224.203 485.5,227.5C 486.065,223.463 487.399,219.797 489.5,216.5 Z"/></g>
<g><path style="opacity:0.051" fill="#b3a9a7" d="M 205.5,235.5 C 204.341,237.25 202.674,238.25 200.5,238.5C 201.659,236.75 203.326,235.75 205.5,235.5 Z"/></g>
<g><path style="opacity:0.067" fill="#bbb9b8" d="M 141.5,236.5 C 143.819,236.992 145.819,237.992 147.5,239.5C 144.911,239.539 142.911,238.539 141.5,236.5 Z"/></g>
<g><path style="opacity:0.141" fill="#9c9896" d="M 336.5,237.5 C 338.819,237.992 340.819,238.992 342.5,240.5C 339.911,240.539 337.911,239.539 336.5,237.5 Z"/></g>
<g><path style="opacity:0.078" fill="#a29f9d" d="M 200.5,238.5 C 197.203,240.601 193.537,241.935 189.5,242.5C 192.797,240.399 196.463,239.065 200.5,238.5 Z"/></g>
<g><path style="opacity:0.192" fill="#a79a9e" d="M 530.5,238.5 C 533.542,238.733 536.208,239.733 538.5,241.5C 535.458,241.267 532.792,240.267 530.5,238.5 Z"/></g>
<g><path style="opacity:0.141" fill="#989695" d="M 147.5,239.5 C 149.786,239.595 151.786,240.262 153.5,241.5C 151.102,241.741 149.102,241.074 147.5,239.5 Z"/></g>
<g><path style="opacity:0.4" fill="#8c877e" d="M 538.5,241.5 C 540.786,241.595 542.786,242.262 544.5,243.5C 542.102,243.741 540.102,243.074 538.5,241.5 Z"/></g>
<g><path style="opacity:0.38" fill="#92897b" d="M 348.5,242.5 C 351.067,242.721 353.401,243.388 355.5,244.5C 352.772,244.829 350.438,244.163 348.5,242.5 Z"/></g>
<g><path style="opacity:0.302" fill="#8b867f" d="M 574.5,242.5 C 571.746,243.946 568.746,244.946 565.5,245.5C 568.008,243.446 571.008,242.446 574.5,242.5 Z"/></g>
<g><path style="opacity:0.027" fill="#a6a2a0" d="M 480.5,234.5 C 480.5,235.5 480.5,236.5 480.5,237.5C 479.662,237.842 479.328,238.508 479.5,239.5C 478.662,239.842 478.328,240.508 478.5,241.5C 477.662,241.842 477.328,242.508 477.5,243.5C 476.662,243.842 476.328,244.508 476.5,245.5C 474.737,248.02 472.737,250.353 470.5,252.5C 473.837,246.492 477.17,240.492 480.5,234.5 Z"/></g>
<g><path style="opacity:0.251" fill="#908c85" d="M 558.5,254.5 C 557.214,257.117 555.547,259.45 553.5,261.5C 554.01,258.326 555.677,255.992 558.5,254.5 Z"/></g>
<g><path style="opacity:0.129" fill="#aba7a6" d="M 278.5,255.5 C 277.567,258.37 275.9,260.704 273.5,262.5C 273.5,261.833 273.5,261.167 273.5,260.5C 274.167,260.5 274.5,260.167 274.5,259.5C 275.338,259.158 275.672,258.492 275.5,257.5C 276.5,256.833 277.5,256.167 278.5,255.5 Z"/></g>
<g><path style="opacity:0.071" fill="#98938e" d="M 368.5,258.5 C 370.9,260.296 372.567,262.63 373.5,265.5C 371.1,263.704 369.433,261.37 368.5,258.5 Z"/></g>
<g><path style="opacity:0.004" fill="#c0bfb5" d="M 272.5,261.5 C 272.5,262.167 272.833,262.5 273.5,262.5C 273.573,264.027 272.906,265.027 271.5,265.5C 271.565,265.062 271.399,264.728 271,264.5C 270.292,265.381 269.458,266.047 268.5,266.5C 269.136,264.205 270.469,262.539 272.5,261.5 Z"/></g>
<g><path style="opacity:0.008" fill="#777066" d="M 83.5,272.5 C 80.9108,271.581 78.9108,269.914 77.5,267.5C 79.8193,268.091 81.8193,269.758 83.5,272.5 Z"/></g>
<g><path style="opacity:0.341" fill="#a7a099" d="M 465.5,263.5 C 464.972,264.721 464.305,265.887 463.5,267C 467,269.334 470,272.168 472.5,275.5C 469.229,273.409 466.063,271.076 463,268.5C 462.259,265.981 463.092,264.315 465.5,263.5 Z"/></g>
<g><path style="opacity:0.016" fill="#b0aaa9" d="M 271.5,267.5 C 274.5,269.833 277.167,272.5 279.5,275.5C 275.833,273.833 273.167,271.167 271.5,267.5 Z"/></g>
<g><path style="opacity:0.02" fill="#aba7a3" d="M 268.5,266.5 C 265.833,269.833 262.833,272.833 259.5,275.5C 261.5,271.5 264.5,268.5 268.5,266.5 Z"/></g>
<g><path style="opacity:0.02" fill="#a9a59f" d="M 376.5,282.5 C 375.149,286.542 372.815,289.875 369.5,292.5C 371.344,288.808 373.677,285.475 376.5,282.5 Z"/></g>
<g><path style="opacity:0.102" fill="#8f8b87" d="M 483.5,284.5 C 485.853,285.34 487.853,286.674 489.5,288.5C 486.802,288.155 484.802,286.822 483.5,284.5 Z"/></g>
<g><path style="opacity:0.082" fill="#98968d" d="M 246.5,285.5 C 244.704,287.9 242.37,289.567 239.5,290.5C 241.296,288.1 243.63,286.433 246.5,285.5 Z"/></g>
<g><path style="opacity:0.078" fill="#96938a" d="M 437.5,286.5 C 435.371,288.95 432.704,290.617 429.5,291.5C 431.629,289.05 434.296,287.383 437.5,286.5 Z"/></g>
<g><path style="opacity:0.122" fill="#9c988d" d="M 550.5,286.5 C 553.471,288.443 555.471,291.109 556.5,294.5C 554.016,292.2 552.016,289.533 550.5,286.5 Z"/></g>
<g><path style="opacity:0.078" fill="#b3a89f" d="M 493.5,291.5 C 496.089,291.461 498.089,292.461 499.5,294.5C 497.181,294.008 495.181,293.008 493.5,291.5 Z"/></g>
<g><path style="opacity:0.078" fill="#a8a59c" d="M 429.5,291.5 C 428.341,293.25 426.674,294.25 424.5,294.5C 425.659,292.75 427.326,291.75 429.5,291.5 Z"/></g>
<g><path style="opacity:0.051" fill="#bbb4ad" d="M 624.5,291.5 C 621.753,294.207 618.42,295.873 614.5,296.5C 617.515,294.326 620.849,292.659 624.5,291.5 Z"/></g>
<g><path style="opacity:0.012" fill="#bbaba8" d="M 369.5,292.5 C 368.92,294.749 367.587,296.415 365.5,297.5C 366.08,295.251 367.413,293.585 369.5,292.5 Z"/></g>
<g><path style="opacity:0.2" fill="#7c766c" d="M 144.5,305.5 C 148.387,305.646 152.054,306.313 155.5,307.5C 151.542,307.749 147.876,307.082 144.5,305.5 Z"/></g>
<g><path style="opacity:0.337" fill="#837e70" d="M 396.5,305.5 C 393.829,307.118 390.829,307.785 387.5,307.5C 390.273,306.343 393.273,305.676 396.5,305.5 Z"/></g>
<g><path style="opacity:0.186" fill="#867e79" d="M 164.5,304.5 C 165.434,305.568 165.768,306.901 165.5,308.5C 161.958,308.813 158.625,308.479 155.5,307.5C 158.572,307.817 161.572,307.484 164.5,306.5C 163.45,305.571 163.45,304.905 164.5,304.5 Z"/></g>
<g><path style="opacity:0.293" fill="#6d6e64" d="M 550.5,305.5 C 551.404,306.209 551.737,307.209 551.5,308.5C 548.615,308.806 545.948,308.473 543.5,307.5C 546.388,308.01 548.721,307.344 550.5,305.5 Z"/></g>
<g><path style="opacity:0.212" fill="#8a897f" d="M 373.5,306.5 C 375.279,308.344 377.612,309.01 380.5,308.5C 378.052,309.473 375.385,309.806 372.5,309.5C 372.263,308.209 372.596,307.209 373.5,306.5 Z"/></g>
</svg>
