<?xml version="1.0" encoding="UTF-8"?>
<!DOCTYPE svg PUBLIC "-//W3C//DTD SVG 1.1//EN" "http://www.w3.org/Graphics/SVG/1.1/DTD/svg11.dtd">
<svg xmlns="http://www.w3.org/2000/svg" version="1.1" width="512px" height="512px" style="shape-rendering:geometricPrecision; text-rendering:geometricPrecision; image-rendering:optimizeQuality; fill-rule:evenodd; clip-rule:evenodd" xmlns:xlink="http://www.w3.org/1999/xlink">
<g><path style="opacity:0.989" fill="#ceb159" d="M 197.5,13.5 C 235.835,13.3333 274.168,13.5 312.5,14C 313.162,38.7677 313.829,63.6011 314.5,88.5C 320.39,90.6949 326.223,93.0283 332,95.5C 349.959,78.5413 367.626,61.208 385,43.5C 412.347,70.6804 439.514,98.0137 466.5,125.5C 449.514,142.986 432.347,160.319 415,177.5C 417.103,183.455 419.436,189.455 422,195.5C 446.667,196.167 471.333,196.833 496,197.5C 496.667,235.833 496.667,274.167 496,312.5C 471.572,313.328 447.072,313.828 422.5,314C 420.108,320.118 417.441,326.118 414.5,332C 431.667,349.167 448.833,366.333 466,383.5C 466.667,384.167 466.667,384.833 466,385.5C 438.986,412.68 411.82,439.68 384.5,466.5C 366.847,449.347 349.347,432.014 332,414.5C 326.356,417.404 320.523,419.904 314.5,422C 313.833,446.667 313.167,471.333 312.5,496C 274.167,496.667 235.833,496.667 197.5,496C 196.672,471.572 196.172,447.072 196,422.5C 190.142,419.934 184.308,417.267 178.5,414.5C 161.014,431.486 143.681,448.653 126.5,466C 125.833,466.667 125.167,466.667 124.5,466C 97.5,439 70.5,412 43.5,385C 60.6667,367.833 77.8333,350.667 95,333.5C 93.4652,327.065 91.2985,320.731 88.5,314.5C 63.6011,313.829 38.7677,313.162 14,312.5C 13.3333,274.167 13.3333,235.833 14,197.5C 38.7677,196.838 63.6011,196.171 88.5,195.5C 90.541,189.877 92.8743,184.377 95.5,179C 78.5413,161.041 61.208,143.374 43.5,126C 71,98.5 98.5,71 126,43.5C 143.167,60.6667 160.333,77.8333 177.5,95C 178.5,95.6667 179.5,95.6667 180.5,95C 185.376,92.5415 190.376,90.3748 195.5,88.5C 196.176,63.4345 196.842,38.4345 197.5,13.5 Z M 213.5,30.5 C 241.167,30.5 268.833,30.5 296.5,30.5C 296.333,53.8357 296.5,77.169 297,100.5C 310.243,104.454 322.909,109.788 335,116.5C 351.167,100.333 367.333,84.1667 383.5,68C 384.167,67.3333 384.833,67.3333 385.5,68C 404.833,87.3333 424.167,106.667 443.5,126C 427.333,142.167 411.167,158.333 395,174.5C 396.438,180.398 398.772,186.064 402,191.5C 404.455,198.876 407.289,206.042 410.5,213C 433.498,213.5 456.498,213.667 479.5,213.5C 479.5,241.167 479.5,268.833 479.5,296.5C 456.498,296.333 433.498,296.5 410.5,297C 406.117,309.477 400.95,321.643 395,333.5C 394.333,334.5 394.333,335.5 395,336.5C 411.167,352.667 427.333,368.833 443.5,385C 424,404.5 404.5,424 385,443.5C 368.833,427.333 352.667,411.167 336.5,395C 335.5,394.333 334.5,394.333 333.5,395C 321.905,400.976 309.905,405.976 297.5,410C 296.506,433.092 296.173,456.258 296.5,479.5C 268.833,479.5 241.167,479.5 213.5,479.5C 213.667,456.498 213.5,433.498 213,410.5C 200.92,406.047 189.087,400.88 177.5,395C 176.5,394.333 175.5,394.333 174.5,395C 158.333,411.167 142.167,427.333 126,443.5C 106.667,424.167 87.3333,404.833 68,385.5C 67.3333,384.833 67.3333,384.167 68,383.5C 84.3474,367.319 100.514,350.986 116.5,334.5C 109.696,322.887 104.529,310.553 101,297.5C 77.5749,296.506 54.0749,296.173 30.5,296.5C 30.5,268.833 30.5,241.167 30.5,213.5C 53.8357,213.667 77.169,213.5 100.5,213C 104.86,200.11 110.194,187.61 116.5,175.5C 100.514,159.014 84.3474,142.681 68,126.5C 67.3333,125.833 67.3333,125.167 68,124.5C 87.0138,105.319 106.18,86.3194 125.5,67.5C 142.167,83.8333 158.833,100.167 175.5,116.5C 187.374,110.23 199.707,105.063 212.5,101C 213.494,77.5749 213.827,54.0749 213.5,30.5 Z"/></g>
<g><path style="opacity:0.967" fill="#ceb159" d="M 384.5,76.5 C 389.085,79.4136 393.085,83.0802 396.5,87.5C 391.848,92.6519 387.015,97.6519 382,102.5C 378.167,98.6667 374.333,94.8333 370.5,91C 375.37,86.2979 380.037,81.4646 384.5,76.5 Z"/></g>
<g><path style="opacity:0.965" fill="#ceb159" d="M 364.5,96.5 C 365.552,96.3505 366.552,96.5172 367.5,97C 370.833,100.333 374.167,103.667 377.5,107C 373.652,111.016 369.652,114.849 365.5,118.5C 361.5,115.167 357.833,111.5 354.5,107.5C 357.855,103.813 361.189,100.147 364.5,96.5 Z"/></g>
<g><path style="opacity:0.962" fill="#ceb159" d="M 348.5,112.5 C 352.631,116.13 356.631,119.963 360.5,124C 356.667,127.833 352.833,131.667 349,135.5C 345.167,131.667 341.333,127.833 337.5,124C 341.37,120.298 345.037,116.464 348.5,112.5 Z"/></g>
<g><path style="opacity:0.989" fill="#ceb159" d="M 239.5,121.5 C 282.899,117.725 319.899,131.059 350.5,161.5C 347.136,165.699 343.302,169.365 339,172.5C 300.359,137.427 256.693,129.427 208,148.5C 205.117,143.902 202.617,139.069 200.5,134C 205.077,130.88 210.077,128.546 215.5,127C 223.563,124.825 231.563,122.991 239.5,121.5 Z"/></g>
<g><path style="opacity:0.973" fill="#ceb159" d="M 191.5,136.5 C 193.017,136.511 194.184,137.177 195,138.5C 197.293,142.252 199.46,146.086 201.5,150C 197.871,153.631 193.704,156.464 189,158.5C 185.007,155.04 181.84,150.873 179.5,146C 179.759,144.739 180.426,143.739 181.5,143C 185.069,141.058 188.402,138.892 191.5,136.5 Z"/></g>
<g><path style="opacity:0.968" fill="#ceb159" d="M 171.5,150.5 C 173.716,151.203 175.549,152.536 177,154.5C 179.029,157.029 180.862,159.696 182.5,162.5C 179.457,166.544 175.791,169.877 171.5,172.5C 167.5,169.167 163.833,165.5 160.5,161.5C 163.881,157.452 167.548,153.785 171.5,150.5 Z"/></g>
<g><path style="opacity:0.986" fill="#ceb159" d="M 169.5,177.5 C 189.555,176.51 207.555,182.01 223.5,194C 251.833,222.333 280.167,250.667 308.5,279C 326.787,294.469 344.62,293.969 362,277.5C 372.682,261.068 371.849,245.235 359.5,230C 343.762,217.739 327.762,217.405 311.5,229C 304.986,235.681 298.319,242.181 291.5,248.5C 287.301,245.136 283.635,241.302 280.5,237C 290.044,224.451 301.711,214.451 315.5,207C 345.98,197.998 368.48,207.498 383,235.5C 392.345,265.677 383.178,288.177 355.5,303C 337.152,309.873 319.819,307.873 303.5,297C 273.472,266.639 243.139,236.639 212.5,207C 187.254,190.177 162.254,190.51 137.5,208C 115.296,228.68 109.796,253.18 121,281.5C 136.108,308.22 158.941,319.054 189.5,314C 198.768,311.865 207.102,307.865 214.5,302C 221.709,294.456 229.209,287.289 237,280.5C 241.302,283.635 245.136,287.301 248.5,291.5C 239.984,300.849 230.984,309.683 221.5,318C 196.942,334.18 170.942,336.846 143.5,326C 110.238,308.653 95.4045,281.153 99,243.5C 107.607,205.388 131.107,183.388 169.5,177.5 Z"/></g>
<g><path style="opacity:0.986" fill="#ceb159" d="M 328.5,177.5 C 368.288,177.155 395.121,195.488 409,232.5C 417.947,270.34 406.447,300.173 374.5,322C 343.865,337.654 314.531,335.654 286.5,316C 258.167,287.667 229.833,259.333 201.5,231C 186.268,218.246 170.268,217.246 153.5,228C 137.69,244.343 136.69,261.51 150.5,279.5C 165.876,292.848 181.876,293.682 198.5,282C 205.043,275.122 211.876,268.622 219,262.5C 223.851,265.673 227.518,269.673 230,274.5C 222.137,282.698 213.97,290.531 205.5,298C 176.932,313.701 152.432,308.867 132,283.5C 118.537,258.029 122.037,235.196 142.5,215C 163.966,200.053 185.632,199.72 207.5,214C 238.224,245.392 269.557,276.058 301.5,306C 325.82,319.471 349.487,318.471 372.5,303C 398.214,278.212 402.047,250.378 384,219.5C 366.883,198.535 345.049,191.035 318.5,197C 310.109,199.695 302.442,203.695 295.5,209C 288.319,216.348 280.986,223.515 273.5,230.5C 269.301,227.136 265.635,223.302 262.5,219C 274.224,203.264 288.891,191.264 306.5,183C 313.812,180.505 321.145,178.672 328.5,177.5 Z"/></g>
<g><path style="opacity:0.987" fill="#ceb159" d="M 170.5,337.5 C 207.826,371.326 250.493,380.159 298.5,364C 313.762,357.791 327.262,348.957 339,337.5C 342.833,341.333 346.667,345.167 350.5,349C 316.826,382.333 276.493,395 229.5,387C 202.364,381.462 179.364,368.795 160.5,349C 163.656,345.011 166.989,341.177 170.5,337.5 Z"/></g>
<g><path style="opacity:0.974" fill="#ceb159" d="M 111.5,349.5 C 115.737,352.228 119.571,355.561 123,359.5C 123.667,360.167 123.667,360.833 123,361.5C 112.167,372.333 101.333,383.167 90.5,394C 89.8333,394.667 89.1667,394.667 88.5,394C 85.3333,390.833 82.1667,387.667 79,384.5C 78.3333,383.833 78.3333,383.167 79,382.5C 90.0354,371.632 100.869,360.632 111.5,349.5 Z"/></g>
</svg>
