<?xml version="1.0" encoding="UTF-8"?>
<!DOCTYPE svg PUBLIC "-//W3C//DTD SVG 1.1//EN" "http://www.w3.org/Graphics/SVG/1.1/DTD/svg11.dtd">
<svg xmlns="http://www.w3.org/2000/svg" version="1.1" width="170px" height="170px" style="shape-rendering:geometricPrecision; text-rendering:geometricPrecision; image-rendering:optimizeQuality; fill-rule:evenodd; clip-rule:evenodd" xmlns:xlink="http://www.w3.org/1999/xlink">
<g><path style="opacity:0.963" fill="#caae59" d="M 98.5,4.5 C 100.39,4.2965 101.89,4.96317 103,6.5C 105.381,10.7658 107.881,14.9324 110.5,19C 106.447,23.5322 101.447,26.6989 95.5,28.5C 90.6312,26.7055 90.2979,24.2055 94.5,21C 74.3038,18.065 56.3038,23.065 40.5,36C 37.1703,40.1629 33.5036,43.9962 29.5,47.5C 27.6841,46.1851 26.0175,44.6851 24.5,43C 42.4446,18.2356 66.6113,8.06891 97,12.5C 97.2649,10.8374 96.7649,9.3374 95.5,8C 96.7101,6.9609 97.7101,5.79423 98.5,4.5 Z"/></g>
<g><path style="opacity:0.965" fill="#caae5a" d="M 125.5,24.5 C 150.679,42.1736 161.012,66.3402 156.5,97C 158.163,97.2649 159.663,96.7649 161,95.5C 164.7,97.5544 165.2,100.054 162.5,103C 158.234,105.381 154.068,107.881 150,110.5C 145.468,106.447 142.301,101.447 140.5,95.5C 142.294,90.6312 144.794,90.2979 148,94.5C 151.459,68.2056 142.793,46.8722 122,30.5C 121.333,29.8333 121.333,29.1667 122,28.5C 123.376,27.2949 124.542,25.9616 125.5,24.5 Z"/></g>
<g><path style="opacity:0.963" fill="#caae5a" d="M 17.5,58.5 C 19.3904,58.2965 20.8904,58.9632 22,60.5C 24.7121,64.5909 26.8788,68.9242 28.5,73.5C 26.7055,78.3688 24.2055,78.7021 21,74.5C 18.0777,92.8114 22.0777,109.478 33,124.5C 37.343,130.009 42.1763,135.009 47.5,139.5C 46.1851,141.316 44.6851,142.983 43,144.5C 18.2356,126.555 8.06891,102.389 12.5,72C 10.8374,71.7351 9.3374,72.2351 8,73.5C 3.65135,70.8233 3.48468,67.9899 7.5,65C 11.4109,63.5558 14.7442,61.3891 17.5,58.5 Z"/></g>
<g><path style="opacity:0.993" fill="#c8b05e" d="M 85.5,66.5 C 85.5,78.5 85.5,90.5 85.5,102.5C 85.189,103.478 84.5223,104.145 83.5,104.5C 82.1861,103.687 81.0195,102.687 80,101.5C 79.6667,95.1667 79.3333,88.8333 79,82.5C 76.3333,87.1667 73.6667,91.8333 71,96.5C 68.9658,99.859 66.6324,100.192 64,97.5C 61,92.1667 58,86.8333 55,81.5C 54.8285,88.6787 54.3285,95.6787 53.5,102.5C 51.8333,105.167 50.1667,105.167 48.5,102.5C 49.8333,90.5 49.8333,78.5 48.5,66.5C 48.811,65.5222 49.4777,64.8555 50.5,64.5C 52.1487,65.6477 53.6487,66.981 55,68.5C 59,75.1667 63,81.8333 67,88.5C 71.5839,81.6676 75.9173,74.6676 80,67.5C 81.0195,66.3128 82.1861,65.3128 83.5,64.5C 84.5223,64.8555 85.189,65.5222 85.5,66.5 Z"/></g>
<g><path style="opacity:0.979" fill="#cab15d" d="M 101.5,67.5 C 101.5,77.5 101.5,87.5 101.5,97.5C 107.31,98.4896 113.31,98.8229 119.5,98.5C 119.232,100.099 119.566,101.432 120.5,102.5C 120.389,103.117 120.056,103.617 119.5,104C 111.754,104.798 104.087,104.631 96.5,103.5C 96.55,91.3758 96.55,79.0425 96.5,66.5C 98.4566,63.9409 100.123,64.2742 101.5,67.5 Z"/></g>
<g><path style="opacity:0.882" fill="#b1b06e" d="M 48.5,66.5 C 49.8333,78.5 49.8333,90.5 48.5,102.5C 47.1667,90.5 47.1667,78.5 48.5,66.5 Z"/></g>
<g><path style="opacity:0.338" fill="#cfb15a" d="M 101.5,67.5 C 102.494,76.9856 102.827,86.6522 102.5,96.5C 108.358,96.1778 114.025,96.5111 119.5,97.5C 113.5,97.5 107.5,97.5 101.5,97.5C 101.5,87.5 101.5,77.5 101.5,67.5 Z"/></g>
<g><path style="opacity:0.824" fill="#b1b270" d="M 85.5,66.5 C 86.1174,66.6107 86.6174,66.944 87,67.5C 87.6667,78.8333 87.6667,90.1667 87,101.5C 86.6174,102.056 86.1174,102.389 85.5,102.5C 85.5,90.5 85.5,78.5 85.5,66.5 Z"/></g>
<g><path style="opacity:0.824" fill="#afaf70" d="M 96.5,66.5 C 96.55,79.0425 96.55,91.3758 96.5,103.5C 95.7784,103.082 95.2784,102.416 95,101.5C 94.3333,90.1667 94.3333,78.8333 95,67.5C 95.3826,66.944 95.8826,66.6107 96.5,66.5 Z"/></g>
<g><path style="opacity:0.839" fill="#a4b277" d="M 53.5,102.5 C 52.1791,94.3242 52.1791,85.9909 53.5,77.5C 53.551,85.5553 53.551,93.8887 53.5,102.5 Z"/></g>
<g><path style="opacity:0.808" fill="#a89e61" d="M 101.5,97.5 C 107.5,97.5 113.5,97.5 119.5,97.5C 121.597,98.8786 121.93,100.545 120.5,102.5C 119.566,101.432 119.232,100.099 119.5,98.5C 113.31,98.8229 107.31,98.4896 101.5,97.5 Z"/></g>
<g><path style="opacity:0.964" fill="#caae59" d="M 138.5,121.5 C 140.886,122.373 142.886,123.873 144.5,126C 126.555,150.764 102.389,160.931 72,156.5C 71.7351,158.163 72.2351,159.663 73.5,161C 70.8233,165.349 67.9899,165.515 65,161.5C 63.503,157.835 61.503,154.502 59,151.5C 58.2888,149.633 58.7888,148.133 60.5,147C 64.5909,144.288 68.9242,142.121 73.5,140.5C 78.3688,142.294 78.7021,144.794 74.5,148C 101.061,151.541 122.394,142.708 138.5,121.5 Z"/></g>
</svg>
